<?xml version="1.0" standalone="no"?>
<!DOCTYPE svg PUBLIC "-//W3C//DTD SVG 20010904//EN"
 "http://www.w3.org/TR/2001/REC-SVG-20010904/DTD/svg10.dtd">
<svg version="1.0" xmlns="http://www.w3.org/2000/svg"
 width="1280.000000pt" height="1262.000000pt" viewBox="0 0 1280.000000 1262.000000"
 preserveAspectRatio="xMidYMid meet">
<metadata>
Created by potrace 1.15, written by Peter Selinger 2001-2017
</metadata>
<g transform="translate(0.000000,1262.000000) scale(0.100000,-0.100000)"
fill="#000000" stroke="none">
<path d="M6105 12614 c-516 -31 -863 -83 -1310 -196 -807 -203 -1584 -575
-2260 -1080 -1343 -1003 -2235 -2494 -2469 -4130 -49 -335 -60 -507 -60 -898
0 -391 11 -563 59 -896 235 -1637 1127 -3129 2470 -4132 904 -676 1974 -1103
3095 -1236 270 -32 425 -40 770 -40 346 -1 495 7 770 40 1121 133 2190 560
3095 1236 1344 1004 2235 2495 2470 4132 48 333 59 505 59 896 0 391 -11 563
-60 898 -286 1998 -1549 3757 -3368 4693 -761 391 -1537 615 -2406 695 -155
14 -723 26 -855 18z m835 -403 c288 -30 552 -71 778 -122 1014 -225 1951 -704
2716 -1389 1072 -961 1760 -2261 1931 -3650 8 -69 18 -146 21 -172 l6 -48
-200 0 -199 0 -119 180 c-65 99 -121 180 -124 180 -3 0 -36 -91 -75 -202 l-70
-203 -203 -56 c-112 -31 -205 -59 -208 -61 -2 -3 72 -63 166 -134 l170 -129 0
-50 c-1 -27 -5 -124 -10 -215 -4 -91 -7 -166 -6 -168 2 -1 83 53 180 121 l178
124 196 -74 c107 -40 199 -72 203 -71 4 2 -20 91 -52 198 -33 107 -58 202 -56
211 5 19 217 289 228 289 13 0 22 -313 16 -600 -6 -307 -25 -528 -69 -787 -7
-48 -14 -63 -27 -63 -14 0 -14 -2 -1 -11 12 -8 9 -9 -10 -5 -84 21 -122 34
-129 44 -3 6 -27 15 -51 21 -40 9 -43 8 -25 -5 17 -13 14 -14 -30 -8 -28 4
-57 10 -66 13 -17 6 -359 300 -359 308 0 5 7 0 137 -99 56 -43 105 -78 108
-78 4 0 -10 20 -30 44 -32 39 -206 156 -233 156 -20 0 -78 56 -74 70 4 13 2
12 -12 -1 -17 -16 -46 -115 -45 -154 1 -23 9 -2 29 78 20 77 23 45 4 -43 l-17
-81 59 -61 c32 -33 96 -89 142 -125 46 -36 81 -67 79 -70 -2 -2 -56 -17 -118
-34 -237 -62 -217 -53 -225 -107 -4 -26 -13 -64 -20 -86 -8 -21 -14 -41 -14
-44 0 -5 43 2 75 13 12 4 8 -2 -10 -14 -30 -21 -19 -29 15 -11 10 5 55 21 101
35 66 20 74 24 39 20 -69 -8 -23 8 130 45 74 18 143 36 152 41 26 13 65 11
101 -5 18 -8 85 -33 149 -56 106 -38 117 -44 113 -64 -17 -74 -78 -314 -98
-381 -27 -92 -26 -92 -130 -52 l-67 26 -16 -37 c-9 -20 -29 -74 -44 -119 -43
-124 -26 -118 -175 -62 -120 46 -175 72 -115 54 73 -22 -11 13 -225 94 -232
88 -291 107 -232 75 15 -8 27 -16 27 -18 0 -3 -12 -27 -26 -55 -14 -29 -28
-66 -31 -84 l-5 -33 269 -106 c232 -93 519 -200 561 -210 9 -2 28 35 55 106
22 61 43 104 45 98 4 -13 -119 -325 -171 -434 l-32 -67 -100 55 c-227 125
-265 145 -265 141 0 -3 77 -49 171 -103 94 -54 173 -103 176 -110 2 -7 -11
-37 -30 -67 -19 -29 -44 -75 -55 -100 -12 -27 -28 -47 -36 -47 -12 0 -3 25 35
100 28 55 49 105 46 113 -3 7 -121 80 -263 162 -143 81 -312 179 -376 217 -65
37 -124 71 -132 74 -9 4 -27 -18 -57 -70 -23 -42 -44 -74 -47 -72 -5 5 30 71
67 126 36 53 41 76 12 60 -26 -13 -81 -110 -88 -154 -5 -32 -2 -37 41 -68 26
-19 150 -90 277 -158 126 -69 229 -128 229 -131 0 -3 -13 -4 -30 -1 -16 2 -30
8 -30 13 0 5 -9 9 -21 9 -11 0 -17 -4 -14 -10 12 -19 -188 -7 -429 27 l-119
16 -28 -34 c-36 -43 -113 -193 -107 -209 5 -16 760 -451 774 -446 26 9 -6 -64
-64 -150 -377 -561 -923 -1119 -1485 -1517 -819 -581 -1747 -943 -2747 -1071
-274 -35 -382 -41 -770 -41 -388 0 -496 6 -770 41 -999 128 -1929 490 -2747
1071 -573 406 -1115 962 -1503 1543 -543 814 -854 1678 -966 2690 -18 162 -32
870 -18 870 19 0 279 -207 278 -221 -1 -8 -4 -107 -8 -218 l-8 -204 29 20 c15
11 96 67 178 125 l151 105 198 -75 c108 -41 200 -72 202 -69 3 3 -22 96 -56
207 l-61 202 135 168 135 168 -31 6 c-17 3 -114 6 -217 6 l-186 0 -119 182
-120 182 -17 -39 c-9 -22 -42 -114 -73 -205 l-57 -166 -162 -44 c-89 -24 -168
-46 -176 -48 -15 -6 -14 18 15 283 141 1281 722 2498 1639 3434 456 466 908
806 1471 1109 713 383 1535 626 2339 692 72 5 148 12 170 14 82 8 794 -3 895
-13z m5313 -7092 c20 -5 37 -14 37 -19 0 -6 -17 -3 -37 4 -21 8 -45 17 -53 19
-30 11 14 7 53 -4z m-1127 -1495 c-4 -11 4 -14 32 -14 l37 1 -30 14 c-28 13
-25 14 45 9 41 -2 149 -9 239 -14 158 -9 217 -19 135 -21 -25 -1 -11 -5 36
-10 41 -5 85 -6 98 -4 12 3 22 4 22 1 0 -2 -31 -59 -69 -126 -61 -109 -97
-163 -172 -250 l-21 -25 14 25 c42 73 63 106 75 113 7 4 13 12 13 16 0 5 -45
35 -101 66 -55 31 -103 63 -106 71 -3 8 -22 23 -42 33 -44 23 -214 92 -217 88
-1 -1 54 -33 122 -71 68 -38 122 -71 119 -74 -5 -5 -335 180 -335 188 0 3 25
3 56 2 42 -3 54 -7 50 -18z m324 -224 c25 -16 42 -30 39 -30 -9 0 -99 51 -99
56 0 10 18 2 60 -26z"/>
<path d="M6737 12135 c-4 -22 -6 -85 -6 -140 l2 -100 13 112 c7 62 9 125 5
140 -7 27 -8 27 -14 -12z"/>
<path d="M6960 12144 c0 -21 -4 -25 -17 -20 -9 4 -51 10 -93 13 l-75 6 -33
-289 c-37 -336 -59 -601 -49 -610 4 -4 57 -13 119 -19 107 -12 109 -12 44 -14
-38 0 -67 -4 -64 -7 4 -3 39 -9 80 -14 40 -4 106 -15 147 -24 83 -19 122 -18
129 3 3 10 -3 11 -27 6 -20 -4 -31 -3 -31 4 0 11 12 15 42 12 18 -2 22 11 33
120 7 69 13 66 -148 79 -66 6 -122 12 -125 14 -2 3 2 69 9 148 9 97 15 133 20
113 4 -18 7 -22 8 -11 2 41 41 453 45 484 3 17 1 32 -5 32 -5 0 -9 -12 -9 -26z
m113 -971 c-7 -2 -19 -2 -25 0 -7 3 -2 5 12 5 14 0 19 -2 13 -5z"/>
<path d="M6075 12104 c-18 -15 -11 -16 95 -10 150 9 170 26 30 26 -80 -1 -110
-4 -125 -16z"/>
<path d="M5350 12088 l-35 -20 40 6 c105 17 137 18 184 6 28 -6 51 -15 51 -18
1 -4 12 -20 26 -37 l26 -30 -23 43 c-13 24 -30 48 -37 55 -8 6 -55 12 -106 13
-76 2 -97 -1 -126 -18z"/>
<path d="M5282 12089 c-13 -5 -33 -16 -45 -24 -20 -14 -21 -15 -2 -15 11 0 34
11 50 25 33 26 32 29 -3 14z"/>
<path d="M6342 12028 c21 -77 53 -156 43 -108 -36 171 -39 180 -55 180 -5 0 1
-33 12 -72z"/>
<path d="M6180 12083 c-52 -2 -98 -7 -102 -11 -4 -4 -39 -179 -78 -387 -39
-209 -73 -390 -75 -403 -6 -22 -4 -23 72 -20 l78 3 7 45 c22 128 29 150 49
150 19 0 19 -1 5 -16 -31 -30 -15 -34 34 -8 36 19 61 25 90 22 22 -2 42 1 44
7 7 20 18 -4 38 -82 28 -110 25 -107 104 -104 38 1 70 4 72 6 3 3 -9 56 -25
110 -5 18 -4 18 11 6 19 -16 19 -15 -10 89 l-12 45 -2 -40 c-1 -38 -9 -11
-151 518 -16 59 -25 77 -38 75 -9 -1 -59 -4 -111 -5z m29 -201 c6 -21 13 -57
16 -81 3 -24 14 -62 24 -85 11 -22 22 -58 26 -78 l7 -38 -38 1 c-31 0 -35 2
-19 9 15 7 10 9 -23 9 l-42 1 4 43 c4 35 3 34 -6 -10 -6 -29 -14 -53 -18 -53
-3 0 7 72 24 160 17 88 31 160 33 160 1 0 7 -17 12 -38z"/>
<path d="M6250 11635 c0 -8 4 -15 10 -15 5 0 7 7 4 15 -4 8 -8 15 -10 15 -2 0
-4 -7 -4 -15z"/>
<path d="M5075 12062 c-43 -15 -54 -24 -76 -66 -15 -27 -33 -53 -42 -57 -23
-13 -40 -89 -29 -130 l10 -34 1 48 c2 82 66 177 154 227 59 34 54 37 -18 12z"/>
<path d="M5123 12044 c-29 -13 -53 -27 -53 -29 0 -5 95 31 120 45 35 21 -17 9
-67 -16z"/>
<path d="M5285 12046 c-60 -12 -130 -31 -155 -42 -48 -22 -105 -79 -122 -123
-30 -78 6 -371 66 -537 14 -38 23 -70 22 -72 -4 -3 -56 127 -71 176 -4 13 -9
22 -11 19 -6 -6 44 -154 69 -202 14 -29 16 -36 5 -27 -9 7 -25 39 -37 71 -18
49 -51 99 -51 77 0 -3 31 -70 68 -148 56 -119 73 -145 98 -156 l29 -12 -26 22
c-21 19 -49 73 -49 96 0 3 13 -13 28 -34 33 -45 62 -71 62 -56 0 6 -18 32 -40
57 -22 25 -45 56 -51 68 -6 12 5 3 25 -20 67 -77 152 -89 344 -48 133 29 212
63 242 105 26 36 35 107 25 194 l-7 66 -51 1 c-48 1 -49 2 -19 9 35 8 60 26
51 35 -3 3 -30 -2 -60 -11 -83 -23 -88 -26 -54 -34 25 -6 26 -8 7 -9 -47 -2
-62 -19 -62 -66 0 -71 -38 -93 -195 -111 -88 -11 -106 14 -150 206 -25 112
-33 240 -16 240 6 0 12 -15 14 -32 3 -24 4 -19 5 17 2 61 14 71 118 90 97 19
139 2 159 -63 8 -26 11 -26 132 -1 48 10 62 17 59 29 -28 102 -40 132 -66 173
-19 31 -43 53 -65 63 -48 20 -141 16 -270 -10z"/>
<path d="M6037 12045 c-13 -41 -107 -537 -107 -563 1 -15 28 104 61 263 32
160 58 297 56 305 -2 11 -5 10 -10 -5z"/>
<path d="M5007 11950 l-37 -49 1 -128 c1 -71 5 -139 10 -153 6 -17 7 -7 3 32
-3 31 -2 101 2 154 7 93 9 99 42 136 22 25 32 42 26 48 -6 6 -24 -9 -47 -40z"/>
<path d="M5987 11918 c-23 -107 -37 -191 -33 -195 4 -4 21 73 46 200 17 86 5
81 -13 -5z"/>
<path d="M5674 11950 c3 -14 11 -47 16 -75 6 -27 13 -57 15 -65 4 -13 -14 -20
-88 -35 -82 -18 -88 -20 -50 -23 23 -2 51 2 62 7 11 6 43 11 71 11 46 0 51 2
45 18 -4 9 -21 53 -37 97 -31 83 -44 108 -34 65z"/>
<path d="M4620 11894 c-96 -29 -192 -84 -147 -84 15 0 197 89 197 96 0 2 -1 4
-2 3 -2 -1 -23 -7 -48 -15z"/>
<path d="M7833 11898 c2 -7 16 -12 31 -11 14 1 26 -1 26 -4 0 -4 -41 -130 -91
-282 -77 -233 -91 -286 -92 -345 -1 -67 -1 -68 -14 -35 l-13 34 6 -45 c12
-102 22 -120 43 -82 9 16 10 16 16 0 12 -30 96 -75 220 -118 104 -36 129 -41
187 -38 48 3 75 10 95 24 45 33 88 116 134 254 23 71 46 127 50 125 4 -3 5 4
2 14 -3 11 0 28 6 38 9 15 10 13 6 -12 -3 -16 14 24 38 90 25 66 51 136 59
155 10 22 13 42 7 55 -4 11 -8 15 -8 9 -1 -7 -35 1 -87 19 -49 17 -89 26 -93
21 -14 -15 -98 -263 -126 -369 -33 -124 -54 -181 -71 -196 -18 -15 -19 -18 21
101 19 57 33 105 31 107 -6 7 -96 -229 -90 -238 3 -5 1 -9 -5 -9 -5 0 -12 4
-15 9 -3 4 -33 16 -68 26 -34 9 -69 20 -77 23 -8 3 -12 1 -8 -5 4 -6 36 -19
72 -29 67 -19 90 -38 33 -27 -72 13 -142 47 -156 76 -12 25 -10 43 21 165 19
75 58 199 86 275 28 76 52 143 54 149 1 6 -34 23 -78 38 -44 15 -79 33 -77 39
1 7 -14 11 -39 11 -28 0 -39 -4 -36 -12z"/>
<path d="M4635 11869 c-75 -30 -78 -42 -4 -15 98 35 96 34 74 35 -11 0 -42 -9
-70 -20z"/>
<path d="M6722 11860 c0 -19 2 -27 5 -17 2 9 2 25 0 35 -3 9 -5 1 -5 -18z"/>
<path d="M8000 11872 c8 -5 26 -13 40 -16 17 -5 20 -4 10 2 -8 5 -26 13 -40
16 -17 5 -20 4 -10 -2z"/>
<path d="M7859 11844 c-5 -15 -8 -29 -5 -31 2 -2 8 10 14 26 13 38 5 41 -9 5z"/>
<path d="M4583 11824 l-72 -25 39 -107 c21 -59 43 -120 50 -137 25 -65 -9 -5
-39 70 -42 101 -56 117 -31 34 10 -35 24 -89 31 -119 28 -130 175 -540 193
-540 3 0 -1 19 -8 43 -24 80 -26 92 -6 52 11 -22 26 -57 35 -78 13 -33 19 -37
38 -31 12 4 29 9 37 11 8 3 -6 -8 -32 -23 -27 -15 -47 -29 -45 -30 7 -7 116
27 170 52 57 28 75 51 36 50 -22 -1 -22 -1 -200 532 -71 213 -94 272 -107 271
-9 0 -49 -12 -89 -25z"/>
<path d="M5315 11831 c-14 -6 0 -10 45 -14 36 -3 75 -9 88 -13 31 -9 28 14 -4
26 -30 12 -100 12 -129 1z"/>
<path d="M4717 11823 c-5 -8 228 -681 239 -692 23 -24 -125 473 -184 612 -34
82 -45 97 -55 80z"/>
<path d="M6400 11808 c0 -17 39 -116 40 -101 1 28 -22 113 -31 113 -5 0 -9 -6
-9 -12z"/>
<path d="M7805 11765 c-23 -57 -76 -227 -72 -232 5 -4 56 131 80 215 18 60 14
69 -8 17z"/>
<path d="M4135 11705 l-30 -14 40 6 c22 3 44 9 50 14 15 14 -26 10 -60 -6z"/>
<path d="M4214 11693 c8 -9 97 -43 110 -43 6 0 -5 11 -24 25 -29 22 -106 37
-86 18z"/>
<path d="M3980 11645 c-14 -7 -54 -22 -90 -31 -36 -10 -88 -33 -116 -50 -28
-18 -63 -36 -77 -39 -14 -4 -34 -16 -44 -28 -13 -15 -14 -19 -3 -15 25 10 365
170 369 174 10 9 -16 2 -39 -11z"/>
<path d="M4075 11640 c-98 -29 -405 -167 -405 -181 0 -3 11 -32 25 -64 14 -32
24 -59 22 -61 -2 -3 -16 23 -31 57 -15 34 -29 59 -32 57 -2 -3 13 -43 35 -88
41 -84 57 -111 46 -75 -6 18 -5 18 5 2 6 -9 9 -21 5 -26 -3 -5 -1 -11 3 -13 5
-1 45 -75 89 -163 45 -88 110 -217 146 -286 35 -70 66 -132 69 -140 6 -17 23
-10 235 92 250 121 291 170 264 324 -21 124 -161 416 -245 512 -67 77 -116 88
-231 53z m74 -194 c45 -24 84 -76 135 -180 48 -98 59 -140 17 -66 -31 56 -35
50 -6 -12 18 -38 25 -72 26 -118 l1 -65 13 55 13 55 1 -50 c1 -32 -5 -59 -16
-74 -14 -21 -179 -108 -188 -99 -2 1 -17 37 -33 78 -43 107 -113 255 -161 339
l-41 72 68 30 c124 57 127 57 171 35z"/>
<path d="M4060 11430 c-12 -8 -11 -10 5 -9 11 1 31 5 45 9 24 8 24 8 -5 9 -16
0 -37 -4 -45 -9z"/>
<path d="M3970 11348 c0 -10 70 -178 89 -216 34 -64 23 -28 -30 94 -47 110
-59 136 -59 122z"/>
<path d="M4233 10963 c-24 -8 -43 -19 -43 -25 0 -11 32 -2 80 23 42 22 21 23
-37 2z"/>
<path d="M5215 11638 c3 -13 11 -50 19 -83 14 -64 49 -152 41 -105 -13 75 -49
210 -57 210 -5 0 -6 -10 -3 -22z"/>
<path d="M6947 11575 c-11 -121 -14 -138 -16 -85 -1 33 -4 41 -11 30 -15 -23
-13 -110 3 -110 34 1 38 15 35 136 l-3 119 -8 -90z"/>
<path d="M6682 11630 c0 -14 2 -19 5 -12 2 6 2 18 0 25 -3 6 -5 1 -5 -13z"/>
<path d="M4340 11598 c0 -4 18 -40 40 -80 46 -85 54 -85 10 0 -32 63 -50 91
-50 80z"/>
<path d="M8784 11585 c-23 -18 -22 -18 41 0 48 13 49 14 14 14 -19 1 -44 -6
-55 -14z"/>
<path d="M8945 11574 c17 -8 21 -12 10 -9 -122 35 -204 -7 -268 -137 -42 -85
-52 -131 -43 -193 9 -59 38 -92 144 -160 88 -58 152 -112 152 -128 0 -5 -12 5
-26 22 -14 17 -30 31 -36 31 -12 0 0 -40 19 -62 15 -17 14 -30 -3 -73 -7 -20
-7 -20 14 -1 12 11 22 27 22 37 0 10 5 21 11 25 20 12 0 -48 -27 -83 -14 -18
-34 -33 -45 -33 -37 0 -179 79 -189 105 -9 24 3 79 21 99 15 17 10 22 -33 42
-24 10 -64 31 -90 46 l-48 27 -16 -31 c-48 -92 -68 -213 -44 -259 6 -10 8 -19
6 -19 -3 0 -14 17 -25 38 -13 23 -20 30 -21 19 0 -10 4 -27 10 -37 13 -25 133
-104 255 -168 55 -29 87 -49 70 -46 -16 4 -50 18 -75 32 -40 23 -43 23 -25 4
11 -11 69 -41 129 -66 107 -45 108 -46 104 -21 -4 20 0 25 26 31 52 11 95 43
136 104 96 142 112 268 44 349 -14 17 -65 56 -112 87 -153 99 -179 139 -131
205 27 38 51 37 135 -7 77 -40 117 -78 110 -102 -21 -71 -24 -67 64 -113 46
-24 85 -50 87 -57 6 -14 11 -8 48 53 21 34 9 24 -23 -19 -26 -34 -28 -27 -5
17 9 18 24 57 33 87 10 30 23 56 29 58 7 2 4 -16 -8 -49 -13 -33 -15 -47 -7
-38 21 23 38 81 26 93 -5 5 -10 21 -11 36 l-1 25 -8 -25 c-6 -17 -8 -20 -9 -7
-2 33 -40 94 -91 148 -41 43 -50 49 -44 29 4 -14 14 -31 23 -38 9 -7 -39 16
-106 50 -66 35 -120 64 -118 66 1 1 34 -9 72 -23 96 -34 100 -31 18 15 -53 30
-81 40 -115 39 l-45 0 30 -15z"/>
<path d="M7952 11453 c-51 -178 -51 -180 -38 -199 11 -14 14 -8 19 42 3 32 18
104 32 158 13 55 23 101 21 103 -2 2 -17 -45 -34 -104z"/>
<path d="M8694 11502 c-42 -47 -52 -66 -58 -107 l-6 -50 29 62 c16 34 43 82
61 107 17 25 29 46 28 46 -2 0 -26 -26 -54 -58z"/>
<path d="M6652 11499 c-15 -60 -26 -204 -12 -169 7 18 8 9 4 -35 -4 -39 -2
-57 4 -50 11 11 45 275 37 284 -3 2 -5 -4 -6 -15 -1 -14 -3 -13 -8 6 -6 23 -8
21 -19 -21z m5 -131 c-3 -8 -6 -5 -6 6 -1 11 2 17 5 13 3 -3 4 -12 1 -19z"/>
<path d="M5771 11463 c5 -38 8 -76 8 -85 1 -10 8 -18 17 -18 12 0 15 6 10 23
-3 12 -11 50 -18 85 -6 34 -14 62 -18 62 -3 0 -3 -30 1 -67z"/>
<path d="M5522 11448 c-6 -16 -19 -28 -27 -28 -9 0 -34 -9 -57 -21 -23 -12
-62 -24 -87 -29 -36 -5 -42 -9 -27 -15 17 -7 188 38 209 56 5 3 7 19 5 35 l-4
29 -12 -27z"/>
<path d="M7035 11421 c-20 -9 -12 -11 115 -26 33 -4 34 -3 16 10 -11 8 -27 15
-37 15 -9 0 -29 2 -45 5 -16 2 -38 1 -49 -4z"/>
<path d="M5911 11357 c-23 -109 -23 -117 -14 -117 10 0 39 167 31 175 -3 3
-10 -23 -17 -58z"/>
<path d="M6315 11370 c4 -25 9 -64 12 -87 l6 -43 91 1 c50 0 100 4 111 9 l20
9 -20 2 c-11 1 -55 1 -97 -1 l-77 -2 -25 79 c-22 65 -25 71 -21 33z"/>
<path d="M7178 11323 c-2 -27 -1 -59 3 -73 6 -21 7 -18 8 16 1 23 4 56 7 73 4
18 2 31 -4 31 -5 0 -12 -21 -14 -47z"/>
<path d="M8890 11353 c0 -8 114 -64 159 -78 45 -14 11 15 -59 50 -68 34 -100
43 -100 28z"/>
<path d="M6099 11305 c-4 -50 -4 -50 -44 -56 -40 -6 -40 -6 11 -8 l52 -1 -5
48 c-7 69 -10 73 -14 17z"/>
<path d="M6530 11332 c0 -20 33 -78 37 -66 2 7 -5 27 -16 45 -12 19 -21 28
-21 21z"/>
<path d="M5770 11283 l-22 -38 22 20 c27 24 44 55 31 55 -5 0 -19 -17 -31 -37z"/>
<path d="M3466 11275 c-3 -9 1 -26 9 -38 15 -21 15 -21 9 13 -8 43 -10 45 -18
25z"/>
<path d="M8606 11260 c-3 -17 -1 -42 4 -56 6 -14 10 -36 10 -48 0 -14 9 -27
23 -34 12 -6 42 -23 67 -37 44 -26 35 -16 -33 37 -31 24 -35 33 -42 92 -7 73
-19 92 -29 46z"/>
<path d="M8850 11281 c0 -20 214 -180 226 -168 5 5 -73 70 -146 121 -30 22
-56 43 -58 48 -5 11 -22 10 -22 -1z"/>
<path d="M4520 11267 c0 -15 49 -115 60 -122 6 -4 -3 22 -21 57 -32 65 -39 76
-39 65z"/>
<path d="M3385 11230 c-22 -16 -46 -29 -53 -30 -29 0 -319 -216 -308 -228 4
-3 21 8 39 24 54 50 140 110 205 143 34 17 62 29 62 27 0 -2 -51 -37 -112 -77
-152 -97 -188 -127 -188 -151 0 -19 81 -140 157 -235 42 -53 32 -55 -22 -5
-22 20 -34 30 -27 23 15 -18 16 -35 1 -26 -6 4 46 -64 115 -151 69 -87 139
-184 156 -216 17 -32 36 -56 41 -52 11 6 13 1 -57 110 -28 45 -63 92 -76 105
-51 50 -118 148 -107 155 7 4 17 0 23 -9 6 -8 63 -90 126 -181 78 -113 120
-165 131 -162 17 4 258 162 362 238 l67 50 -45 67 -45 66 55 -60 55 -60 -33
-34 c-27 -30 -28 -33 -7 -19 14 8 35 20 47 27 22 11 22 12 -27 73 -28 34 -50
67 -50 73 0 25 -22 34 -46 18 -13 -8 -22 -18 -20 -22 3 -4 -16 -20 -42 -35
l-47 -28 24 26 c28 30 22 32 -25 10 -26 -13 -32 -20 -24 -29 8 -10 3 -19 -22
-36 -18 -13 -49 -34 -68 -48 l-35 -25 40 42 c43 46 36 55 -16 19 -26 -18 -34
-30 -32 -50 3 -39 -10 -33 -45 21 -17 26 -39 57 -48 70 -9 12 -15 24 -13 26
18 15 185 128 230 156 l57 36 -39 52 c-41 54 -64 71 -35 27 18 -27 38 -75 32
-75 -2 0 -20 24 -40 54 l-36 55 -84 -29 c-112 -38 -136 -52 -78 -48 23 2 42 2
42 1 0 -11 -142 -94 -149 -87 -4 5 -24 32 -44 61 l-36 51 42 28 42 27 -25 -28
c-29 -33 -22 -29 80 38 92 61 108 76 53 48 -66 -33 -64 -25 5 20 34 23 62 44
62 48 0 3 -23 34 -51 69 -27 34 -47 67 -44 72 11 18 -9 10 -50 -20z m30 -20
c-3 -5 -11 -10 -16 -10 -6 0 -7 5 -4 10 3 6 11 10 16 10 6 0 7 -4 4 -10z"/>
<path d="M3710 11249 c0 -3 18 -41 40 -85 40 -78 40 -79 34 -34 -4 28 -16 56
-32 75 -15 17 -30 34 -34 40 -5 5 -8 7 -8 4z"/>
<path d="M5704 11205 c-10 -8 -14 -15 -8 -15 6 0 17 7 24 15 16 19 9 19 -16 0z"/>
<path d="M6650 11209 c0 -12 24 -15 60 -9 35 6 34 6 -12 11 -27 2 -48 1 -48
-2z"/>
<path d="M3510 11177 c0 -2 14 -16 30 -32 17 -16 30 -24 30 -19 0 6 -13 20
-30 32 -16 13 -30 21 -30 19z"/>
<path d="M7171 11164 c0 -11 3 -14 6 -6 3 7 2 16 -1 19 -3 4 -6 -2 -5 -13z"/>
<path d="M8346 11105 c-15 -42 -30 -84 -33 -93 -5 -15 -4 -15 9 -2 14 15 62
160 54 167 -2 2 -15 -31 -30 -72z"/>
<path d="M5555 11150 c-102 -31 -153 -40 -226 -40 -79 0 -92 -18 -23 -33 56
-11 153 7 237 44 112 51 117 61 12 29z"/>
<path d="M9516 11123 l-27 -48 38 37 c27 27 34 41 26 49 -7 7 -18 -3 -37 -38z"/>
<path d="M9090 11145 c0 -9 141 -97 147 -91 13 13 -9 34 -65 64 -57 30 -82 39
-82 27z"/>
<path d="M8555 11133 c6 -6 28 -20 50 -32 22 -13 31 -15 20 -6 -22 18 -86 53
-70 38z"/>
<path d="M9572 11125 c-13 -7 -62 -68 -109 -136 -48 -68 -139 -198 -203 -289
-64 -91 -126 -180 -139 -197 l-22 -32 185 -138 c101 -76 198 -146 214 -155
l29 -18 42 60 c23 33 44 60 47 60 5 0 -55 -110 -68 -124 -5 -6 -22 -3 -45 8
l-38 17 40 -35 c34 -29 49 -33 46 -11 -1 3 24 37 54 77 30 39 54 72 52 72 -1
1 -13 10 -26 21 -14 11 -21 14 -17 8 13 -23 -8 -13 -48 22 -42 38 -42 46 2 18
l27 -18 -23 32 c-29 41 -40 47 -56 34 -9 -7 -25 -1 -61 24 -65 46 -68 51 -16
25 56 -28 51 -6 -9 34 -39 27 -44 28 -55 13 -7 -9 -15 -14 -18 -11 -7 7 84
143 96 144 8 0 169 -115 235 -168 48 -40 46 -41 98 46 14 23 30 42 35 42 5 0
9 6 9 13 0 6 -25 -15 -56 -48 -59 -63 -61 -59 -8 15 l32 45 -65 83 c-65 83
-88 100 -59 43 9 -16 16 -33 16 -36 0 -5 -100 67 -133 95 -8 7 70 120 82 120
3 0 20 -12 36 -26 21 -17 23 -22 8 -15 -47 23 -33 8 57 -59 51 -38 96 -70 99
-70 3 0 -11 16 -30 36 l-34 37 58 -42 c32 -24 60 -41 62 -39 1 1 19 30 40 63
21 33 44 65 52 71 12 10 6 18 -31 45 -25 18 -44 35 -41 37 8 9 -299 224 -315
221 -3 -1 -15 -7 -28 -14z m177 -95 c31 -21 74 -57 96 -81 35 -36 36 -39 10
-22 -26 18 -192 143 -250 188 -32 25 82 -42 144 -85z m202 -177 c13 -16 12
-17 -3 -4 -17 13 -22 21 -14 21 2 0 10 -8 17 -17z"/>
<path d="M4590 11127 c-1 -28 24 -97 36 -97 8 0 14 3 14 8 -1 11 -49 98 -50
89z"/>
<path d="M8487 11102 c-16 -18 -50 -102 -44 -108 2 -2 17 26 35 61 34 69 35
76 9 47z"/>
<path d="M6210 11069 c-643 -25 -1264 -181 -1858 -465 -1143 -546 -2032 -1548
-2443 -2752 -469 -1375 -284 -2903 499 -4112 192 -296 361 -508 606 -758 641
-655 1442 -1105 2331 -1311 834 -192 1732 -153 2544 111 1449 471 2589 1611
3059 3058 76 235 109 363 153 600 208 1117 7 2283 -561 3259 -592 1017 -1531
1778 -2640 2139 -557 181 -1093 255 -1690 231z"/>
<path d="M9138 11054 c-4 -3 1 -26 9 -50 19 -56 25 -52 17 9 -6 44 -13 55 -26
41z"/>
<path d="M3909 10877 c33 -75 68 -151 76 -168 27 -51 8 -45 -20 8 -27 50 -26
42 7 -44 21 -56 28 -62 48 -38 10 12 -3 46 -70 187 -102 213 -121 240 -41 55z"/>
<path d="M3635 10990 c3 -5 8 -10 11 -10 2 0 4 5 4 10 0 6 -5 10 -11 10 -5 0
-7 -4 -4 -10z"/>
<path d="M4590 10957 c0 -34 4 -47 14 -47 11 0 12 8 4 42 -13 58 -18 60 -18 5z"/>
<path d="M4627 10958 c8 -59 13 -61 13 -5 0 26 -4 47 -9 47 -5 0 -7 -19 -4
-42z"/>
<path d="M8706 10985 c-11 -30 -6 -62 12 -77 26 -24 124 -80 129 -74 10 9 -10
27 -63 57 -44 25 -54 36 -54 57 0 37 -15 60 -24 37z"/>
<path d="M8270 10955 c-7 -9 -10 -18 -7 -21 3 -3 10 4 17 15 13 25 8 27 -10 6z"/>
<path d="M9391 10943 c-15 -21 -19 -23 -15 -8 4 11 -41 -55 -99 -147 -58 -93
-128 -195 -156 -227 -32 -37 -47 -62 -41 -66 6 -4 12 -5 14 -4 1 2 33 46 71
97 39 51 70 96 70 100 0 16 100 162 111 162 6 0 25 27 42 60 34 66 34 74 3 33z"/>
<path d="M8202 10951 c2 -7 7 -12 11 -12 12 1 9 15 -3 20 -7 2 -11 -2 -8 -8z"/>
<path d="M2983 10942 c-7 -5 4 -23 29 -52 l40 -45 -28 50 c-15 28 -28 51 -29
52 0 1 -6 -1 -12 -5z"/>
<path d="M8120 10931 c19 -11 44 -20 55 -20 15 1 13 4 -10 14 -16 7 -41 15
-55 19 -19 5 -16 2 10 -13z"/>
<path d="M9156 10876 c-3 -13 -8 -32 -12 -43 -3 -10 4 -2 15 17 23 39 25 50
12 50 -5 0 -12 -11 -15 -24z"/>
<path d="M3378 10868 c-16 -5 -28 -14 -28 -19 0 -15 23 -10 50 11 27 21 20 24
-22 8z"/>
<path d="M2736 10856 c6 -14 219 -216 229 -216 13 0 -188 208 -211 219 -18 8
-22 7 -18 -3z"/>
<path d="M2660 10795 c-24 -25 -42 -45 -39 -45 3 0 25 20 49 45 24 25 42 45
39 45 -3 0 -25 -20 -49 -45z"/>
<path d="M3598 10757 c-119 -84 -144 -104 -118 -95 18 7 250 168 250 174 0 11
-24 -3 -132 -79z"/>
<path d="M2647 10743 l-87 -89 149 -302 c83 -166 148 -302 146 -302 -3 0 -133
70 -290 155 -156 85 -290 156 -297 157 -7 2 -16 8 -20 13 -4 6 -30 -11 -60
-41 -29 -28 -66 -60 -82 -72 -19 -15 -23 -22 -13 -22 9 0 18 4 21 9 3 5 34 33
68 62 l63 53 -77 -80 c-43 -44 -78 -84 -78 -89 0 -5 89 -99 197 -209 259 -263
408 -419 358 -376 -90 80 -96 80 -20 2 75 -77 94 -94 80 -73 -3 5 22 35 55 67
l61 58 -84 85 c-124 127 -127 142 -4 22 58 -58 110 -102 114 -98 4 4 -2 16
-13 25 -62 58 -228 205 -281 250 -34 29 -99 94 -145 144 l-83 91 55 -31 c198
-110 595 -322 604 -322 7 0 31 20 55 44 31 32 42 50 37 62 -4 10 -2 21 5 24 8
5 6 16 -5 39 -20 38 -29 41 -15 5 5 -15 7 -29 5 -31 -3 -3 -30 46 -61 108 -32
63 -105 206 -163 319 l-105 205 257 -262 c253 -259 288 -287 303 -245 3 9 16
28 28 42 62 71 63 67 -36 159 -49 45 -89 80 -89 76 0 -3 21 -29 46 -58 26 -29
-79 75 -232 231 l-279 283 -88 -88z"/>
<path d="M4410 10780 c-31 -21 -62 -46 -70 -56 -8 -10 18 6 58 35 39 29 72 54
72 57 0 6 -1 5 -60 -36z"/>
<path d="M9995 10800 c-10 -11 -16 -22 -13 -25 3 -3 13 4 23 15 10 11 16 22
13 25 -3 3 -13 -4 -23 -15z"/>
<path d="M9580 10777 c0 -7 15 -21 32 -32 l33 -19 -25 31 c-27 34 -40 41 -40
20z"/>
<path d="M9098 10738 c-8 -7 -30 -34 -47 -61 -18 -26 -43 -54 -57 -62 -13 -8
-36 -22 -50 -31 -14 -8 -23 -18 -21 -21 6 -5 93 51 139 90 14 12 33 39 42 60
17 41 16 42 -6 25z"/>
<path d="M9927 10705 c-9 -19 -13 -35 -8 -35 10 0 36 58 29 65 -2 3 -12 -11
-21 -30z"/>
<path d="M4280 10715 c-14 -8 -20 -14 -14 -15 5 0 19 7 30 15 24 18 16 19 -16
0z"/>
<path d="M4125 10659 c-38 -17 -79 -40 -90 -51 -11 -11 -15 -19 -10 -17 27 10
175 90 175 94 0 7 3 8 -75 -26z"/>
<path d="M9454 10602 c9 -16 246 -183 246 -174 0 8 -222 173 -243 181 -5 2 -7
-1 -3 -7z"/>
<path d="M2571 10588 c-2 -13 68 -187 99 -249 34 -66 107 -179 116 -179 3 0
-11 28 -31 63 -20 34 -57 105 -81 157 -77 163 -103 215 -103 208z"/>
<path d="M9050 10457 c0 -3 12 -12 26 -22 15 -9 23 -12 20 -6 -7 11 -46 35
-46 28z"/>
<path d="M2871 10375 c44 -84 69 -124 69 -112 0 15 -69 143 -90 167 -13 15 -6
-5 21 -55z"/>
<path d="M3645 10359 c-110 -80 -161 -123 -95 -79 56 38 210 152 210 156 0 7
-1 6 -115 -77z"/>
<path d="M9110 10416 c0 -2 42 -33 93 -68 105 -73 117 -81 117 -75 0 2 -47 36
-105 76 -58 40 -105 70 -105 67z"/>
<path d="M10455 10321 l-30 -7 25 -7 c14 -4 57 -7 95 -7 66 1 68 2 45 15 -26
15 -84 17 -135 6z"/>
<path d="M10300 10243 c-87 -68 -224 -202 -215 -211 2 -3 -10 -24 -27 -48 -33
-46 -48 -52 -28 -12 11 22 11 22 -9 -2 -44 -54 -73 -120 -66 -148 l7 -27 13
35 13 35 1 -47 c1 -25 4 -55 7 -65 6 -16 5 -16 -10 2 -17 20 -17 20 -11 -5 10
-37 50 -122 69 -145 15 -19 16 -19 6 8 -5 15 -17 42 -26 60 -19 37 -10 29 31
-28 16 -22 50 -64 75 -93 26 -31 44 -61 42 -72 -6 -36 15 -57 64 -65 26 -3 54
-9 63 -11 9 -3 -2 4 -24 14 -22 11 -51 32 -65 47 -24 26 -22 26 22 -5 35 -25
61 -34 101 -38 97 -8 164 27 332 171 143 122 195 200 195 292 0 31 4 44 11 39
7 -4 9 0 6 12 -3 11 -13 45 -21 76 -17 61 -36 84 -36 46 -1 -22 -2 -22 -22 7
-12 17 -53 62 -90 101 -83 87 -151 124 -226 124 -28 0 -52 -3 -52 -8 0 -4 -22
-17 -50 -30 -27 -12 -63 -34 -80 -48 -16 -14 -30 -22 -30 -17 0 13 57 66 104
97 21 14 32 26 25 26 -8 0 -53 -30 -99 -67z m-50 -77 c0 -2 -8 -10 -17 -17
-16 -13 -17 -12 -4 4 13 16 21 21 21 13z m-76 -67 c-16 -17 -42 -40 -59 -51
-16 -11 -5 3 25 31 62 57 79 67 34 20z m418 -61 c93 -97 105 -151 50 -214 -35
-40 -173 -159 -215 -184 -52 -32 -100 -26 -149 18 -49 44 -98 117 -98 147 0
34 47 96 127 165 109 95 149 120 195 120 34 0 46 -7 90 -52z"/>
<path d="M10444 10060 c-62 -31 -188 -152 -213 -205 -21 -46 -31 -115 -11 -85
5 8 10 23 10 33 0 10 10 33 23 51 23 34 159 165 212 203 38 28 31 29 -21 3z"/>
<path d="M10540 10035 c0 -37 98 -140 117 -121 3 2 -22 37 -56 76 -53 61 -61
67 -61 45z"/>
<path d="M10614 9838 c-11 -13 -28 -34 -39 -48 -16 -21 -14 -20 14 5 29 27 58
65 48 65 -2 0 -12 -10 -23 -22z"/>
<path d="M10457 9703 c-38 -30 -66 -57 -63 -60 4 -5 54 33 130 99 5 4 8 9 5
12 -2 2 -35 -21 -72 -51z"/>
<path d="M10272 9700 c2 -7 20 -25 39 -39 l34 -26 -26 34 c-26 36 -55 54 -47
31z"/>
<path d="M10677 10224 c61 -74 124 -136 130 -130 10 10 -36 71 -83 111 -80 67
-91 71 -47 19z"/>
<path d="M3489 10243 c-13 -16 -12 -17 4 -4 9 7 17 15 17 17 0 8 -8 3 -21 -13z"/>
<path d="M2040 10231 c0 -6 5 -13 10 -16 6 -3 10 1 10 9 0 9 -4 16 -10 16 -5
0 -10 -4 -10 -9z"/>
<path d="M2590 10214 c77 -44 142 -76 147 -71 5 6 -165 97 -181 97 -6 0 9 -12
34 -26z"/>
<path d="M2060 10186 c0 -11 231 -244 280 -281 30 -23 -116 131 -212 226 -38
36 -68 61 -68 55z"/>
<path d="M2997 10143 c31 -70 47 -90 38 -48 -7 28 -50 105 -60 105 -2 0 8 -26
22 -57z"/>
<path d="M2665 9975 c11 -9 71 -48 133 -87 84 -53 116 -68 124 -60 15 15 17
13 -72 55 -41 19 -104 52 -140 72 -36 19 -56 29 -45 20z"/>
<path d="M10886 9860 c4 -20 1 -39 -10 -56 -17 -25 -17 -25 2 -15 38 20 45 37
27 70 -20 39 -26 39 -19 1z"/>
<path d="M2388 9845 c5 -11 22 -31 37 -45 23 -21 26 -21 17 -5 -5 11 -22 31
-37 45 -23 21 -26 21 -17 5z"/>
<path d="M2983 9815 c-18 -8 -33 -19 -33 -25 0 -12 20 -3 55 24 25 19 19 19
-22 1z"/>
<path d="M10728 9634 c-216 -206 -257 -240 -313 -258 l-50 -16 45 6 c56 8 100
41 291 218 164 152 197 186 181 186 -6 0 -76 -61 -154 -136z"/>
<path d="M11090 9637 c-123 -85 -128 -90 -57 -52 37 20 67 34 67 31 0 -3 -43
-31 -95 -62 -52 -31 -95 -58 -95 -61 0 -2 35 15 78 38 188 104 233 136 210
151 -21 13 -30 9 -108 -45z"/>
<path d="M11228 9638 c-3 -22 59 -115 69 -104 5 4 -55 126 -61 126 -3 0 -6
-10 -8 -22z"/>
<path d="M10847 9425 c-191 -112 -362 -214 -379 -227 -18 -12 -43 -22 -57 -23
-17 0 -25 -6 -23 -15 4 -17 85 -150 90 -146 1 2 -6 24 -17 50 -11 25 -19 46
-17 46 6 0 60 -94 62 -108 2 -8 4 -16 7 -18 7 -7 178 98 184 113 3 7 12 13 20
13 8 0 12 -4 9 -9 -10 -15 37 1 69 23 16 12 58 45 94 74 35 29 65 51 67 49 3
-2 0 -17 -6 -33 l-11 -29 27 25 c25 24 26 24 15 3 -16 -32 -241 -376 -254
-388 -5 -5 3 13 18 40 37 65 29 57 -39 -38 -74 -103 -75 -112 -25 -166 22 -24
51 -66 65 -93 13 -26 29 -48 34 -48 9 0 -39 89 -87 158 -23 34 -30 62 -15 62
4 -1 24 -29 45 -63 22 -35 51 -78 67 -97 l27 -34 189 111 c274 159 326 187
354 190 43 4 111 31 187 75 116 66 73 63 -53 -3 -63 -34 -117 -59 -120 -56 -3
2 41 32 98 65 57 34 109 65 116 70 10 7 3 25 -28 80 -23 40 -46 74 -51 78 -13
8 -104 -41 -288 -156 -90 -56 -186 -115 -212 -130 l-47 -29 21 37 c22 38 143
219 219 329 24 34 64 89 90 121 l47 59 -25 53 c-20 43 -111 190 -117 190 -1 0
-159 -92 -350 -205z m177 -144 c-30 -46 -28 -45 -55 -31 -15 9 -32 3 -86 -33
-103 -66 -163 -100 -163 -90 0 4 17 18 38 29 20 12 93 55 162 97 68 42 126 74
128 72 2 -2 -9 -22 -24 -44z m-334 -175 c0 -6 -87 -56 -97 -56 -4 0 12 14 37
30 43 27 60 35 60 26z"/>
<path d="M1612 9557 c-29 -29 -52 -56 -52 -60 0 -4 -15 -26 -33 -50 -38 -50
-190 -297 -185 -301 10 -9 748 -456 752 -456 6 0 98 151 94 155 -2 1 -46 28
-98 60 -52 32 -99 61 -103 65 -10 9 33 81 71 122 41 44 78 45 158 4 38 -19 82
-43 97 -53 28 -18 28 -18 48 7 40 52 79 114 76 123 -1 5 -52 39 -111 75 -104
64 -112 67 -172 67 -49 0 -69 -5 -93 -22 -38 -29 -39 -29 -33 2 7 40 -7 92
-34 124 -14 17 -25 33 -24 36 1 8 -107 78 -170 110 -70 35 -86 30 -20 -6 30
-17 46 -27 35 -24 -72 23 -117 28 -150 18 -44 -14 -37 -1 11 22 28 13 33 19
23 26 -24 15 -33 10 -87 -44z m220 -243 c61 -39 59 -68 -9 -177 l-23 -37 -83
51 c-45 28 -84 52 -86 54 -2 2 13 30 33 63 53 87 90 98 168 46z"/>
<path d="M1676 9260 c-28 -42 -31 -50 -18 -50 4 0 18 20 30 45 27 56 23 57
-12 5z"/>
<path d="M1840 9224 c-16 -47 -8 -53 13 -9 9 19 12 37 7 40 -4 3 -14 -11 -20
-31z"/>
<path d="M11340 9454 c0 -5 7 -19 15 -30 8 -10 15 -14 15 -8 0 5 -7 19 -15 30
-8 10 -15 14 -15 8z"/>
<path d="M10668 9379 c-38 -22 -68 -44 -68 -48 0 -4 -31 -29 -70 -55 -38 -27
-70 -50 -70 -53 0 -5 -15 -14 168 97 83 50 152 94 152 96 0 3 -9 0 -19 -6 -25
-13 -34 -13 -26 0 9 15 6 13 -67 -31z m62 17 c0 -2 -7 -7 -16 -10 -8 -3 -12
-2 -9 4 6 10 25 14 25 6z m-45 -26 c-3 -5 -12 -10 -18 -10 -7 0 -6 4 3 10 19
12 23 12 15 0z"/>
<path d="M11343 9351 c-40 -36 -54 -61 -35 -61 8 0 58 59 76 88 11 19 5 14
-41 -27z"/>
<path d="M2040 9343 c0 -38 9 -40 65 -13 l40 20 -42 -6 c-33 -4 -43 -2 -52 13
-9 15 -10 13 -11 -14z"/>
<path d="M2200 9340 c0 -9 51 -40 65 -40 4 0 -7 11 -23 25 -32 27 -42 31 -42
15z"/>
<path d="M11261 9246 c-14 -17 -54 -74 -143 -206 -60 -89 -65 -100 -33 -70 35
34 144 190 179 258 17 34 16 41 -3 18z"/>
<path d="M2370 9246 c0 -2 21 -16 48 -32 60 -34 57 -31 42 -48 -6 -9 -10 -21
-7 -28 3 -8 10 -2 17 14 12 24 11 31 -6 49 -22 25 -94 59 -94 45z"/>
<path d="M11545 9128 c14 -23 38 -67 52 -95 26 -55 43 -68 43 -32 0 30 -65
133 -96 154 l-26 17 27 -44z"/>
<path d="M1350 9096 c25 -24 140 -92 140 -83 0 3 -27 22 -60 42 -61 37 -74 49
-42 39 9 -3 6 2 -8 10 -40 25 -58 20 -30 -8z"/>
<path d="M2108 9102 c-34 -7 -18 -17 45 -30 34 -6 73 -14 87 -17 21 -5 22 -4
5 4 -59 27 -122 47 -137 43z"/>
<path d="M2385 9060 c-38 -39 -47 -52 -37 -62 10 -10 15 -9 26 2 15 17 70 110
64 110 -2 0 -26 -22 -53 -50z"/>
<path d="M2027 8976 c-4 -9 13 -23 46 -41 29 -16 72 -41 97 -57 l45 -29 -35
31 c-71 62 -148 111 -153 96z"/>
<path d="M1656 8916 c43 -28 73 -41 78 -36 5 5 8 11 5 14 -7 6 -138 66 -145
66 -4 0 24 -20 62 -44z"/>
<path d="M1308 8813 c-30 -35 -33 -48 -7 -30 13 9 37 17 54 17 l30 1 -25 14
c-32 18 -34 18 -52 -2z"/>
<path d="M1406 8811 c17 -10 57 -26 90 -36 32 -9 138 -46 234 -82 138 -51 183
-72 214 -101 38 -36 39 -36 18 -6 -29 42 -34 46 -142 91 -83 35 -421 153 -438
153 -4 0 7 -9 24 -19z"/>
<path d="M1870 8791 c89 -70 193 -141 198 -136 9 9 -14 26 -123 93 -55 34 -89
53 -75 43z"/>
<path d="M2140 8727 c-68 -100 -73 -111 -25 -67 36 34 89 123 83 140 -2 4 -28
-28 -58 -73z"/>
<path d="M1345 8771 c-16 -4 -40 -13 -53 -20 -12 -6 -26 -10 -31 -7 -10 7 -97
-68 -112 -97 -10 -17 -9 -19 6 -13 12 4 16 2 12 -6 -75 -183 -81 -203 -81
-291 l-1 -87 -18 42 c-15 36 -20 40 -28 26 -7 -13 -3 -30 15 -66 25 -49 68
-97 53 -59 -18 45 -18 50 1 24 11 -16 22 -27 25 -25 3 2 16 -7 29 -19 13 -12
48 -36 78 -53 43 -25 48 -30 25 -25 -16 3 -56 18 -87 33 -32 16 -53 23 -47 16
16 -19 153 -82 262 -120 106 -37 137 -42 97 -18 -17 11 -19 13 -5 9 11 -4 44
-13 74 -21 60 -15 74 -23 45 -25 -10 -1 12 -5 50 -10 70 -8 116 1 116 22 0 8
-11 9 -32 6 -33 -6 -33 -6 7 13 21 11 53 33 70 48 28 25 29 26 7 1 -33 -38
-27 -47 9 -13 33 32 103 133 97 139 -2 3 -21 -18 -42 -45 -40 -53 -58 -67 -30
-25 9 14 33 66 54 116 29 70 44 95 69 110 36 22 36 18 13 93 l-17 58 -1 -58
c0 -33 -4 -67 -10 -77 -7 -12 -9 0 -6 47 2 35 -1 80 -7 99 -19 56 -86 114
-196 167 -185 90 -335 130 -410 111z m136 -196 c209 -73 289 -125 289 -188 0
-54 -39 -148 -77 -186 -31 -31 -37 -33 -78 -28 -69 10 -275 97 -314 133 -30
27 -35 38 -34 72 2 49 63 185 89 201 27 15 74 13 125 -4z m-31 -545 c8 -5 11
-10 5 -10 -5 0 -17 5 -25 10 -8 5 -10 10 -5 10 6 0 17 -5 25 -10z"/>
<path d="M1423 8564 c9 -9 107 -34 107 -27 0 5 -40 19 -80 28 -20 4 -31 4 -27
-1z"/>
<path d="M1322 8479 c-32 -80 -35 -98 -12 -84 31 19 78 165 53 165 -5 0 -23
-37 -41 -81z"/>
<path d="M1560 8516 c0 -6 108 -56 144 -67 50 -15 15 7 -63 40 -76 32 -81 34
-81 27z"/>
<path d="M1737 8383 c-12 -20 -25 -83 -17 -83 10 0 34 79 27 87 -3 2 -7 1 -10
-4z"/>
<path d="M1309 8318 c45 -51 254 -125 320 -113 53 9 71 15 71 25 0 5 -17 4
-37 -2 -20 -5 -53 -7 -73 -4 -43 7 -265 90 -288 108 -10 7 -6 0 7 -14z"/>
<path d="M11578 8691 c-69 -32 -142 -64 -162 -71 -21 -6 -35 -14 -33 -16 7 -7
278 98 306 118 52 37 10 25 -111 -31z"/>
<path d="M10966 8612 c-98 -58 -174 -108 -168 -110 9 -3 320 185 347 209 19
18 -4 5 -179 -99z"/>
<path d="M11410 8596 c-371 -142 -550 -218 -550 -231 0 -7 20 -62 44 -123 24
-62 42 -112 40 -112 -2 0 -20 30 -39 68 -38 71 -38 66 -1 -38 13 -36 29 -87
35 -113 17 -73 38 -117 56 -117 14 0 14 3 -1 25 -14 22 -15 25 -1 25 9 0 19
-9 22 -20 8 -26 10 -26 97 10 89 36 88 34 24 185 -26 59 -45 109 -44 110 7 6
278 113 278 109 0 -2 -12 -11 -27 -19 -41 -24 -21 -17 232 85 212 85 295 123
217 101 -29 -9 -31 -8 -38 22 -11 54 -52 137 -66 136 -7 -1 -132 -47 -278
-103z m-436 -592 c3 -8 2 -12 -4 -9 -6 3 -10 10 -10 16 0 14 7 11 14 -7z"/>
<path d="M1106 8582 c-15 -29 -56 -180 -56 -204 1 -16 54 117 75 185 15 52 4
63 -19 19z"/>
<path d="M11076 8523 c-29 -5 -176 -60 -186 -70 -3 -3 11 -3 30 1 24 4 16 -1
-22 -15 -32 -11 -58 -25 -58 -31 0 -6 8 -7 18 -3 9 4 68 25 129 47 63 23 110
45 107 50 -4 6 3 8 17 4 13 -3 18 -3 10 0 -11 5 -11 8 0 15 15 10 10 10 -45 2z"/>
<path d="M10810 8374 c0 -10 10 -30 21 -44 l20 -25 -16 39 c-19 48 -25 56 -25
30z"/>
<path d="M11251 8285 c-81 -38 -101 -40 -49 -5 36 24 36 24 -40 -4 -53 -20
-65 -39 -34 -54 12 -6 44 5 117 44 113 61 117 70 6 19z"/>
<path d="M1945 8239 c-4 -6 -5 -12 -2 -15 2 -3 7 2 10 11 7 17 1 20 -8 4z"/>
<path d="M11160 8148 c0 -2 13 -37 30 -78 25 -64 29 -70 30 -42 0 33 -31 105
-50 117 -5 3 -10 5 -10 3z"/>
<path d="M11911 8015 c15 -59 17 -63 18 -29 1 16 -6 39 -14 50 -13 17 -13 15
-4 -21z"/>
<path d="M11770 7928 c-47 -45 -71 -71 -55 -60 90 64 92 65 55 32 -60 -55
-253 -212 -267 -217 -7 -3 -13 -11 -13 -18 0 -17 -19 -23 -100 -30 -233 -19
-272 -24 -265 -36 4 -5 25 -10 48 -10 l42 -1 -43 -11 c-24 -5 -41 -15 -39 -21
2 -6 12 -46 22 -88 21 -89 22 -89 127 -64 32 7 61 9 66 4 4 -4 23 -5 41 -2 20
4 28 10 21 14 -16 10 -6 15 57 31 51 12 57 11 267 -47 118 -32 213 -61 211
-63 -3 -2 -63 9 -135 24 -72 15 -133 25 -136 22 -3 -2 17 -14 44 -25 46 -20
253 -49 270 -38 13 8 92 -16 92 -28 0 -6 7 -3 14 7 12 15 11 30 -7 98 -21 87
-36 102 -18 19 6 -28 11 -63 10 -78 0 -15 -10 11 -20 58 -11 47 -23 88 -27 91
-13 12 -195 67 -282 86 l-85 19 138 114 c114 95 137 118 131 135 -3 11 -13 53
-22 93 l-15 73 -27 -26 c-33 -32 -45 -32 -24 0 9 14 15 25 13 25 -2 -1 -42
-37 -89 -82z"/>
<path d="M856 7970 c-3 -19 -13 -75 -21 -124 -9 -48 -14 -91 -11 -94 4 -3 6 3
7 14 0 10 3 14 5 8 3 -6 -11 -77 -31 -158 -19 -82 -35 -153 -35 -159 0 -7 52
-25 118 -41 194 -48 197 -64 3 -20 -62 14 -116 22 -119 19 -11 -11 20 -23 78
-29 32 -4 104 -18 161 -32 61 -15 142 -27 194 -29 94 -3 195 -25 338 -74 81
-27 84 -28 96 -10 20 33 50 180 37 184 -6 2 -85 20 -176 41 -91 21 -168 40
-171 43 -4 3 1 38 11 76 11 44 18 60 19 42 2 -41 17 -24 35 37 22 76 19 88 -9
36 -28 -52 -30 -47 -10 35 7 33 11 63 7 66 -4 4 -42 14 -86 24 -65 14 -80 15
-88 3 -5 -8 -6 2 -2 27 4 26 3 37 -3 30 -10 -10 -41 -155 -41 -190 0 -11 -3
-48 -7 -83 -7 -58 -10 -63 -29 -58 -12 2 -50 10 -85 18 -35 7 -66 18 -68 25
-6 16 21 168 47 258 11 39 20 70 20 71 0 0 -36 9 -79 19 -60 14 -82 23 -89 39
-9 19 -10 18 -16 -14z"/>
<path d="M11122 7959 c-35 -17 -62 -33 -60 -35 7 -6 138 49 138 58 0 13 -11
10 -78 -23z"/>
<path d="M1014 7959 c53 -22 66 -20 41 5 -10 9 -32 16 -53 15 l-37 0 49 -20z"/>
<path d="M11000 7899 c0 -5 5 -7 10 -4 6 3 10 8 10 11 0 2 -4 4 -10 4 -5 0
-10 -5 -10 -11z"/>
<path d="M1246 7872 c-14 -13 -4 -21 35 -27 54 -9 58 -2 10 17 -22 9 -42 13
-45 10z"/>
<path d="M11951 7854 c0 -11 3 -14 6 -6 3 7 2 16 -1 19 -3 4 -6 -2 -5 -13z"/>
<path d="M1378 7843 c6 -2 18 -2 25 0 6 3 1 5 -13 5 -14 0 -19 -2 -12 -5z"/>
<path d="M11892 7757 c-61 -46 -63 -60 -3 -23 22 14 45 26 50 26 14 0 21 14
13 27 -4 6 -27 -5 -60 -30z"/>
<path d="M11735 7635 c-16 -13 -27 -26 -25 -28 3 -2 41 -13 84 -25 86 -23 92
-15 9 13 -53 17 -64 30 -41 53 20 20 5 13 -27 -13z"/>
<path d="M1050 7609 c0 -7 -10 -9 -27 -4 -18 4 -24 3 -18 -3 15 -15 65 -24 65
-12 0 5 10 10 23 11 21 0 21 1 2 9 -28 12 -45 12 -45 -1z"/>
<path d="M11088 7574 c-5 -4 -8 -14 -8 -23 0 -21 20 -94 25 -89 7 7 -10 119
-17 112z"/>
<path d="M1350 7530 c0 -10 74 -34 138 -46 51 -9 37 1 -41 31 -72 27 -97 31
-97 15z"/>
<path d="M11960 7530 c20 -13 77 -13 85 0 4 6 -14 10 -47 10 -38 0 -49 -3 -38
-10z"/>
<path d="M751 7514 c0 -11 3 -14 6 -6 3 7 2 16 -1 19 -3 4 -6 -2 -5 -13z"/>
<path d="M736 7468 c-8 -31 -7 -48 2 -48 4 0 8 16 9 35 2 40 -2 45 -11 13z"/>
<path d="M11505 7421 c84 -18 119 -21 108 -10 -6 6 -42 13 -80 15 -55 3 -61 2
-28 -5z"/>
<path d="M11131 7404 c0 -11 3 -14 6 -6 3 7 2 16 -1 19 -3 4 -6 -2 -5 -13z"/>
<path d="M11188 7373 c6 -2 18 -2 25 0 6 3 1 5 -13 5 -14 0 -19 -2 -12 -5z"/>
<path d="M1681 7307 c-15 -45 -19 -71 -13 -88 9 -23 9 -22 20 11 11 37 24 140
17 140 -2 0 -13 -29 -24 -63z"/>
<path d="M1425 7245 c169 -54 205 -63 205 -51 0 7 -46 23 -112 39 -117 28
-162 34 -93 12z"/>
<path d="M11480 5533 c1 -5 22 -18 48 -31 l47 -22 -33 30 c-30 28 -63 40 -62
23z"/>
<path d="M1260 5495 c-36 -13 -115 -36 -177 -51 -61 -15 -110 -31 -107 -35 2
-4 -8 -10 -23 -14 -15 -3 -48 -16 -73 -27 -42 -20 -300 -77 -346 -78 -13 0
-24 -8 -27 -20 -5 -20 29 -169 41 -182 4 -4 86 13 182 37 96 25 177 41 181 37
4 -4 22 -69 40 -144 36 -148 36 -148 95 -128 16 5 48 14 72 20 28 7 42 16 43
28 0 9 6 0 12 -21 7 -22 15 -36 18 -33 7 8 -39 178 -50 186 -8 6 -53 141 -49
145 5 6 170 46 173 43 8 -8 65 -210 76 -265 6 -35 14 -63 18 -63 3 0 39 7 79
17 60 14 77 15 94 4 17 -10 19 -10 15 1 -3 7 -22 65 -42 128 -45 141 -46 145
-39 95 11 -76 -5 -29 -46 135 -23 91 -43 166 -44 167 -3 3 -207 -41 -251 -54
-14 -3 -17 -2 -10 5 6 6 46 20 90 32 163 44 169 46 151 53 -22 9 -18 9 -96
-18z"/>
<path d="M1386 5512 c7 -4 14 -16 17 -27 4 -15 5 -14 6 8 1 20 -4 27 -16 27
-12 0 -14 -3 -7 -8z"/>
<path d="M11945 5441 c26 -26 105 -69 105 -57 0 2 -30 23 -67 46 -63 38 -66
39 -38 11z"/>
<path d="M1412 5440 c0 -14 2 -19 5 -12 2 6 2 18 0 25 -3 6 -5 1 -5 -13z"/>
<path d="M11630 5424 c0 -5 19 -28 43 -52 41 -42 42 -44 22 -59 -19 -15 -19
-15 5 -9 14 3 31 6 38 6 8 0 12 4 10 9 -5 13 -118 114 -118 105z"/>
<path d="M738 5363 c7 -3 16 -2 19 1 4 3 -2 6 -13 5 -11 0 -14 -3 -6 -6z"/>
<path d="M588 5341 c-49 -10 -91 -21 -95 -24 -18 -18 14 -15 118 12 126 32
113 38 -23 12z"/>
<path d="M11518 5283 c-43 -3 -58 -8 -58 -19 0 -12 8 -13 38 -8 33 6 111 34
87 31 -5 0 -36 -2 -67 -4z"/>
<path d="M1205 5230 c-27 -12 -72 -50 -60 -50 29 0 56 14 51 26 -3 9 2 14 14
14 11 0 20 5 20 10 0 11 1 11 -25 0z"/>
<path d="M11422 5200 c0 -14 2 -19 5 -12 2 6 2 18 0 25 -3 6 -5 1 -5 -13z"/>
<path d="M770 5119 l-65 -19 65 6 c90 7 130 15 130 25 0 14 -59 9 -130 -12z"/>
<path d="M11390 5066 c-7 -24 -10 -50 -8 -58 3 -7 10 11 17 41 14 66 8 78 -9
17z"/>
<path d="M911 5049 c0 -13 7 -46 14 -74 l13 -50 0 55 c1 34 -4 62 -13 74 -15
19 -15 19 -14 -5z"/>
<path d="M1350 4900 c-28 -18 18 -23 57 -7 l38 16 -40 0 c-22 1 -47 -3 -55 -9z"/>
<path d="M1103 4887 c-47 -18 -46 -22 3 -18 29 2 44 8 44 17 0 16 -4 16 -47 1z"/>
<path d="M961 4874 c0 -11 3 -14 6 -6 3 7 2 16 -1 19 -3 4 -6 -2 -5 -13z"/>
<path d="M1008 4843 c-10 -2 -18 -9 -18 -14 0 -6 10 -5 23 2 37 20 36 23 -5
12z"/>
<path d="M1275 4711 c-111 -42 -270 -119 -262 -127 3 -3 14 -1 25 5 12 6 24
11 29 11 4 0 -21 -16 -56 -35 -36 -19 -78 -47 -95 -62 -28 -25 -29 -25 -10 -3
35 42 39 56 8 30 -82 -69 -104 -95 -104 -120 l0 -25 25 30 25 30 -15 -37 c-8
-21 -15 -50 -16 -65 l-1 -28 -8 25 c-15 48 -10 -82 5 -135 l15 -50 -4 60 -5
60 23 -65 c13 -36 35 -90 49 -121 17 -40 22 -61 15 -73 -18 -32 -4 -56 52 -87
l55 -31 -31 29 c-18 17 -40 45 -49 64 -16 30 -12 28 28 -17 65 -72 103 -88
191 -81 79 6 133 23 286 91 136 60 196 105 232 176 15 30 32 60 38 67 13 16
13 150 0 158 -5 3 -10 -1 -10 -10 0 -24 -17 -9 -24 20 -4 14 -24 63 -46 108
-36 75 -89 141 -145 182 -17 13 -14 13 24 0 59 -20 69 -19 44 6 -11 12 -49 28
-83 36 -69 15 -90 11 -41 -9 l32 -13 -49 -1 c-43 -2 -129 -20 -187 -39 -11 -4
-4 3 15 16 19 12 59 30 89 39 30 9 50 20 45 23 -5 3 -54 -12 -109 -32z m150
-213 c30 -14 94 -134 102 -194 9 -69 -29 -99 -222 -179 -155 -64 -208 -48
-259 81 -48 120 -31 154 112 222 168 79 218 93 267 70z"/>
<path d="M1254 4456 c-45 -18 -102 -47 -127 -65 -47 -32 -92 -92 -84 -114 2
-6 11 1 19 18 9 17 27 40 40 52 25 23 224 121 273 133 l30 8 -35 1 c-19 0 -72
-14 -116 -33z"/>
<path d="M1435 4438 c-4 -17 1 -43 15 -76 20 -46 55 -91 64 -81 2 2 -14 44
-35 94 -33 79 -38 86 -44 63z"/>
<path d="M1427 4213 c-20 -14 -35 -28 -33 -31 7 -6 76 38 76 49 0 12 1 12 -43
-18z"/>
<path d="M1080 4195 c0 -11 11 -33 25 -50 l25 -30 -10 28 c-6 16 -17 39 -25
50 -14 21 -15 21 -15 2z"/>
<path d="M1275 4149 c-82 -32 -98 -40 -93 -44 5 -5 146 50 157 60 9 10 -15 4
-64 -16z"/>
<path d="M11984 4651 c6 -10 126 -45 132 -38 6 5 -103 47 -122 47 -9 0 -13 -4
-10 -9z"/>
<path d="M11938 4633 c-19 -23 -38 -79 -37 -112 0 -18 9 -3 30 48 31 76 33 93
7 64z"/>
<path d="M1599 4624 c5 -11 30 -62 54 -115 48 -103 70 -133 57 -74 -8 35 -94
190 -112 201 -6 4 -6 -1 1 -12z"/>
<path d="M11671 4496 c3 -3 44 -20 90 -36 70 -24 76 -28 39 -23 -56 7 -51 2
23 -26 l57 -21 0 28 c0 30 5 28 -195 80 -11 3 -17 2 -14 -2z"/>
<path d="M11100 4433 c1 -8 291 -105 298 -99 5 5 -226 93 -265 101 -18 4 -33
3 -33 -2z"/>
<path d="M11046 4312 c-3 -5 22 -26 57 -47 34 -21 82 -53 107 -70 55 -39 70
-48 70 -41 0 10 -56 59 -105 90 -98 63 -123 77 -129 68z"/>
<path d="M11600 4230 c8 -5 20 -10 25 -10 6 0 3 5 -5 10 -8 5 -19 10 -25 10
-5 0 -3 -5 5 -10z"/>
<path d="M11700 4205 c23 -15 24 -15 3 -10 -13 4 -23 4 -23 2 0 -16 196 -104
207 -93 3 2 -8 11 -24 20 -47 26 -17 18 41 -11 31 -15 59 -24 62 -20 10 9 15
7 -131 66 -151 62 -169 68 -135 46z"/>
<path d="M1718 4174 c-5 -4 -8 -14 -8 -23 0 -8 -10 -26 -22 -39 l-23 -24 25 7
c41 12 46 18 40 53 -3 19 -8 30 -12 26z"/>
<path d="M1650 4066 c-19 -6 -55 -22 -80 -36 -159 -87 -395 -190 -438 -191
-36 -1 -37 -1 -7 -8 46 -11 201 52 475 194 105 54 116 63 50 41z"/>
<path d="M1864 4005 c-27 -14 -62 -36 -79 -51 l-30 -26 30 17 c17 10 39 24 50
32 24 16 39 17 29 1 -4 -7 -3 -8 5 -4 6 4 9 12 6 17 -3 5 1 6 9 3 8 -3 19 3
26 15 13 26 14 26 -46 -4z"/>
<path d="M1575 3773 c-192 -123 -356 -228 -364 -233 -12 -6 -5 -23 33 -84 26
-42 51 -76 55 -76 4 0 53 29 109 64 l101 65 30 -47 c65 -103 67 -140 7 -197
-47 -45 -151 -109 -164 -101 -4 2 -14 1 -22 -4 -11 -7 -5 -21 28 -72 46 -69
54 -67 21 7 -33 74 -14 64 25 -13 20 -39 40 -73 46 -77 6 -4 53 21 105 54 92
60 112 70 100 52 -3 -5 9 -2 27 6 18 9 27 18 20 21 -7 2 -20 -2 -29 -10 -10
-7 -2 7 17 31 32 39 35 49 35 107 0 35 0 64 0 64 1 0 18 -9 40 -20 41 -21 100
-26 125 -10 8 5 17 5 20 0 6 -9 132 66 198 119 24 18 41 36 38 38 -3 3 -25
-11 -49 -31 -57 -47 -71 -46 -22 1 38 37 64 85 67 125 1 13 4 0 7 -29 5 -47 8
-50 23 -39 17 12 16 17 -6 82 -38 109 -228 427 -257 431 -8 0 -171 -100 -364
-224z m338 -116 c20 -35 37 -73 37 -84 0 -43 -71 -103 -123 -103 -13 0 -35 12
-49 28 -36 38 -83 115 -72 119 5 2 43 26 84 53 41 27 77 49 80 49 3 1 22 -28
43 -62z"/>
<path d="M1886 3650 c15 -22 28 -40 31 -40 2 0 -6 18 -17 40 -11 22 -25 40
-30 40 -6 0 2 -18 16 -40z"/>
<path d="M1819 3663 c-13 -16 -12 -17 4 -4 16 13 21 21 13 21 -2 0 -10 -8 -17
-17z"/>
<path d="M1750 3620 c-9 -6 -10 -10 -3 -10 6 0 15 5 18 10 8 12 4 12 -15 0z"/>
<path d="M1758 3545 c12 -25 50 -60 57 -53 3 2 -12 20 -31 39 -23 21 -33 26
-26 14z"/>
<path d="M1885 3540 c-3 -5 -1 -10 4 -10 6 0 11 5 11 10 0 6 -2 10 -4 10 -3 0
-8 -4 -11 -10z"/>
<path d="M10853 3888 c40 -14 62 -17 69 -10 7 7 -7 14 -42 21 -78 17 -91 12
-27 -11z"/>
<path d="M10771 3862 c-17 -31 -13 -40 5 -14 9 13 14 26 11 29 -3 2 -10 -4
-16 -15z"/>
<path d="M10985 3871 c19 -8 144 -23 299 -35 80 -7 59 11 -29 23 -98 14 -295
22 -270 12z"/>
<path d="M1598 3827 c-37 -23 -67 -48 -68 -54 0 -7 3 -13 6 -13 8 0 122 88
129 100 9 15 6 13 -67 -33z"/>
<path d="M2116 3767 c3 -10 9 -15 12 -12 3 3 0 11 -7 18 -10 9 -11 8 -5 -6z"/>
<path d="M10677 3703 c-38 -54 -42 -77 -9 -57 15 10 57 102 50 109 -2 2 -20
-22 -41 -52z"/>
<path d="M1285 3635 c-86 -47 -124 -75 -100 -75 9 0 205 121 205 126 0 6 6 8
-105 -51z"/>
<path d="M10638 3604 c-19 -18 15 -46 118 -97 64 -32 113 -53 109 -47 -9 14 1
13 35 -5 17 -9 30 -13 30 -11 0 9 -269 166 -283 166 -2 0 -6 -3 -9 -6z m200
-113 c13 -7 21 -15 18 -18 -5 -5 -126 65 -126 74 0 3 19 -6 43 -20 23 -13 53
-30 65 -36z"/>
<path d="M1156 3543 c13 -53 88 -172 101 -159 5 4 -95 186 -103 186 -2 0 -1
-12 2 -27z"/>
<path d="M1403 3422 c-39 -26 -79 -53 -90 -60 -10 -6 28 10 85 38 56 28 102
52 102 54 0 19 -39 6 -97 -32z"/>
<path d="M10611 3358 c-37 -24 -36 -33 3 -19 17 7 35 7 51 1 31 -12 32 0 1 22
-21 15 -24 15 -55 -4z"/>
<path d="M11075 3355 c11 -9 20 -20 20 -25 0 -13 114 -82 140 -85 11 -1 38
-11 60 -22 50 -26 115 -53 115 -48 0 2 -127 73 -310 172 -25 14 -36 17 -25 8z
m61 -41 c18 -14 18 -14 -6 -3 -31 14 -36 19 -24 19 6 0 19 -7 30 -16z"/>
<path d="M1515 3299 c-74 -93 -75 -101 -5 -33 39 39 61 68 59 79 -3 13 -17 0
-54 -46z"/>
<path d="M10725 3330 c17 -17 55 -49 85 -70 124 -85 325 -256 348 -295 22 -37
23 -38 17 -10 -4 17 -18 43 -33 59 -45 47 -377 309 -432 341 -8 4 -1 -7 15
-25z"/>
<path d="M10492 3299 c-24 -10 -55 -28 -69 -39 -25 -19 -25 -20 -4 -20 18 0
12 -12 -45 -77 -72 -85 -96 -126 -124 -212 l-19 -56 0 42 c-1 44 -15 64 -25
37 -10 -26 -7 -57 11 -115 16 -52 17 -53 24 -24 3 17 7 22 8 13 0 -9 7 -21 15
-25 7 -4 19 -19 26 -32 7 -14 33 -47 59 -75 44 -48 44 -49 11 -26 -19 13 -54
41 -77 64 -24 22 -43 35 -43 29 0 -16 173 -170 253 -225 91 -64 98 -66 42 -14
l-50 48 45 -35 c25 -20 65 -47 90 -62 25 -15 35 -25 23 -22 -54 12 2 -20 80
-47 39 -13 52 -14 70 -4 22 12 22 12 -6 18 -25 4 -21 7 30 22 l58 17 -25 -20
c-16 -13 -3 -9 35 10 33 17 78 47 100 67 46 41 34 36 -50 -19 l-60 -39 47 41
c58 51 161 179 190 234 14 29 22 61 22 102 1 98 -49 165 -237 322 -139 116
-240 155 -330 130 -19 -5 -27 -4 -22 3 9 14 -3 12 -53 -11z m171 -183 c40 -16
208 -155 241 -200 49 -63 43 -103 -32 -194 -45 -54 -85 -76 -129 -69 -39 7
-68 26 -180 120 -88 73 -123 119 -123 159 0 42 75 142 135 179 36 23 46 23 88
5z m-203 -501 c13 -14 21 -25 18 -25 -2 0 -15 11 -28 25 -13 14 -21 25 -18 25
2 0 15 -11 28 -25z"/>
<path d="M10532 3041 c-34 -38 -62 -71 -62 -74 0 -2 11 -2 24 0 35 7 120 122
103 139 -2 3 -32 -27 -65 -65z"/>
<path d="M10666 3082 c5 -5 27 -19 49 -32 31 -19 37 -20 26 -6 -8 9 -27 24
-42 32 -31 16 -48 19 -33 6z"/>
<path d="M10827 2945 c32 -30 65 -54 73 -54 11 -1 9 4 -6 17 -12 9 -42 34 -66
55 -67 55 -67 45 -1 -18z"/>
<path d="M10460 2910 c0 -42 184 -199 257 -219 48 -14 93 -14 93 -1 0 6 -17
10 -37 10 -21 0 -54 10 -75 23 -65 39 -205 151 -222 177 -10 16 -16 19 -16 10z"/>
<path d="M10876 2794 c-25 -37 -28 -52 -7 -39 14 8 44 65 38 72 -3 2 -17 -12
-31 -33z"/>
<path d="M1776 3292 c-3 -3 -6 -26 -5 -51 l1 -46 15 37 c11 28 22 38 42 40 24
3 23 4 -11 14 -20 7 -39 9 -42 6z"/>
<path d="M10353 3198 c-30 -32 -113 -158 -113 -172 0 -11 130 146 146 177 20
36 5 34 -33 -5z"/>
<path d="M2587 3113 c-11 -11 -8 -20 8 -20 8 0 15 6 15 14 0 14 -12 17 -23 6z"/>
<path d="M2452 2993 c-106 -114 -172 -191 -172 -200 0 -3 44 41 98 98 154 164
185 199 180 205 -3 3 -51 -44 -106 -103z"/>
<path d="M2300 2786 c-247 -264 -312 -327 -246 -241 45 59 22 40 -55 -47 -41
-45 -68 -79 -60 -77 7 3 38 -21 70 -54 l56 -59 114 118 c63 66 90 90 60 54
-30 -35 -81 -93 -113 -127 -32 -35 -56 -66 -53 -70 11 -10 33 14 143 151 156
195 206 254 279 326 l65 65 -141 -295 c-77 -162 -143 -297 -146 -300 -13 -12
12 53 57 148 27 56 47 102 45 102 -2 0 -36 -56 -75 -126 -66 -114 -71 -127
-57 -142 12 -13 13 -22 5 -36 -9 -15 -2 -27 40 -69 47 -47 53 -50 76 -39 21 9
24 9 19 -3 -7 -21 8 -18 37 6 l25 20 -25 -6 c-16 -5 -21 -4 -15 2 13 13 580
333 589 333 4 0 -104 -118 -239 -261 -144 -154 -245 -269 -245 -280 0 -11 8
-22 18 -26 9 -3 33 -18 52 -33 66 -51 70 -50 149 45 39 47 71 88 71 92 0 4
-21 -13 -47 -37 -26 -25 58 68 187 205 129 138 247 265 264 283 l31 34 -89 84
c-49 46 -91 84 -95 84 -3 0 -136 -72 -296 -159 -159 -87 -291 -158 -293 -156
-1 1 63 138 143 305 80 166 145 309 145 319 0 9 -31 48 -70 86 -38 38 -70 65
-70 60 0 -5 30 -41 68 -79 l67 -69 -87 76 c-48 43 -89 77 -91 77 -1 0 -122
-128 -267 -284z m-280 -299 c0 -2 -12 -14 -27 -28 l-28 -24 24 28 c23 25 31
32 31 24z"/>
<path d="M1535 3006 l-50 -33 -22 26 c-27 31 -31 13 -4 -20 16 -20 21 -21 48
-10 25 10 97 72 82 70 -2 0 -26 -15 -54 -33z"/>
<path d="M11146 2803 c-4 -15 -19 -45 -32 -66 -29 -44 -27 -52 8 -38 22 8 26
17 31 67 7 64 3 81 -7 37z"/>
<path d="M2199 2723 l-34 -38 35 30 c19 16 39 33 45 37 5 5 5 8 -1 8 -6 0 -26
-17 -45 -37z"/>
<path d="M11050 2620 c-9 -6 -10 -10 -3 -10 6 0 15 5 18 10 8 12 4 12 -15 0z"/>
<path d="M2582 2509 c-23 -51 -40 -94 -38 -96 6 -6 87 169 83 180 -1 5 -22
-33 -45 -84z"/>
<path d="M2900 2566 c-134 -59 -204 -97 -277 -152 -71 -53 -100 -84 -45 -48
121 79 220 137 263 155 52 20 139 67 139 75 0 6 2 6 -80 -30z"/>
<path d="M3130 2568 c0 -2 26 -26 58 -53 31 -27 48 -39 37 -26 -21 24 -95 86
-95 79z"/>
<path d="M9776 2490 c10 -16 19 -28 21 -26 7 7 -17 56 -27 56 -7 0 -4 -13 6
-30z"/>
<path d="M9687 2475 c-25 -19 -50 -34 -55 -33 -10 3 -255 -187 -287 -222 -13
-15 -16 -23 -8 -31 6 -6 9 -17 7 -23 -3 -7 55 -87 128 -178 73 -92 182 -230
243 -307 60 -78 113 -141 116 -141 3 0 89 62 190 137 101 76 191 138 199 138
17 1 80 37 80 46 0 3 -22 30 -50 60 -27 30 -50 59 -50 65 0 6 -6 17 -14 23
-10 9 -19 7 -37 -9 -13 -10 -20 -19 -14 -20 10 0 -10 -15 -60 -45 l-30 -17 30
27 c28 27 28 27 5 20 -43 -14 -71 -36 -61 -49 7 -8 -9 -26 -52 -60 -60 -47
-61 -48 -24 -10 20 22 37 43 37 47 0 12 -53 -19 -79 -47 -19 -20 -22 -28 -12
-40 7 -8 8 -17 3 -20 -5 -3 -23 14 -40 37 -17 23 -41 55 -53 71 l-22 28 20 17
c53 41 221 168 241 181 l22 15 -51 55 c-28 30 -44 44 -35 30 9 -14 23 -38 31
-55 l16 -30 -23 25 c-13 14 -32 38 -43 53 l-20 27 -92 -38 c-109 -45 -125 -57
-63 -48 l45 7 -74 -55 -73 -55 -45 60 c-48 66 -48 67 12 101 20 11 20 11 1
-11 -33 -36 -8 -23 77 41 104 77 114 87 55 53 -27 -15 -48 -25 -48 -22 0 2 25
23 55 46 63 47 63 44 -8 121 -26 28 -45 56 -42 61 11 16 -1 10 -48 -26z m33
-15 c0 -5 -5 -10 -11 -10 -5 0 -7 5 -4 10 3 6 8 10 11 10 2 0 4 -4 4 -10z
m-95 -59 c-34 -30 -255 -188 -255 -182 0 14 141 126 200 159 56 32 72 39 55
23z m636 -514 c18 -13 17 -15 -14 -43 -17 -16 -23 -19 -13 -7 19 22 18 23 -21
75 -57 77 -62 90 -14 35 24 -26 51 -53 62 -60z"/>
<path d="M3174 2348 c-48 -57 -99 -116 -113 -133 -14 -16 25 19 87 80 103 100
132 138 119 151 -3 3 -44 -41 -93 -98z"/>
<path d="M9834 2412 c17 -18 34 -32 38 -32 15 0 0 18 -35 41 l-32 22 29 -31z"/>
<path d="M9865 2340 c-3 -6 1 -7 9 -4 18 7 21 14 7 14 -6 0 -13 -4 -16 -10z"/>
<path d="M2765 2279 c-102 -64 -117 -79 -40 -41 57 29 148 93 129 91 -5 0 -45
-23 -89 -50z"/>
<path d="M3294 2278 c-29 -66 -29 -66 9 -18 32 41 38 60 18 60 -4 0 -16 -19
-27 -42z"/>
<path d="M3372 2289 c4 -10 -1 -15 -15 -16 -27 -2 -32 -10 -156 -212 -56 -91
-142 -230 -191 -309 -50 -78 -90 -146 -90 -150 0 -7 189 -135 339 -229 97 -61
106 -68 71 -58 -22 6 -20 3 10 -19 33 -25 55 -29 55 -10 1 14 65 121 80 134
17 14 12 25 -17 41 -16 9 -19 8 -13 -2 10 -15 -5 -7 -53 29 -39 30 -36 41 5
16 24 -15 23 -12 -10 22 -29 30 -40 36 -46 25 -7 -11 -20 -7 -64 20 -63 37
-68 47 -14 24 33 -13 36 -13 30 0 -3 9 -24 25 -46 37 -35 17 -42 18 -51 6 -6
-8 -16 -13 -22 -11 -7 2 6 30 31 68 24 35 45 69 47 75 4 14 92 -37 222 -127
62 -43 80 -52 88 -42 30 46 60 101 56 104 -2 3 -18 -13 -34 -35 -44 -59 -50
-48 -8 15 l37 55 -73 80 c-40 44 -75 79 -77 77 -2 -3 6 -22 19 -43 14 -24 17
-35 8 -29 -14 8 -131 85 -138 91 -2 1 14 28 34 61 21 32 39 60 41 62 1 2 18
-7 38 -19 38 -23 42 -40 6 -20 -12 6 -21 8 -21 5 0 -4 144 -100 180 -119 8 -4
-3 8 -25 28 l-40 37 65 -41 64 -41 18 23 c9 13 27 46 40 73 12 28 26 53 31 56
4 3 -12 19 -37 35 -24 16 -43 32 -43 36 2 8 -162 114 -267 173 -43 24 -67 33
-64 24z m128 -76 c62 -36 209 -152 160 -127 -15 8 -261 173 -270 181 -13 12
44 -16 110 -54z m245 -183 c3 -5 1 -10 -4 -10 -6 0 -11 5 -11 10 0 6 2 10 4
10 3 0 8 -4 11 -10z m-327 -664 c-18 -36 -39 -66 -46 -66 -12 0 -12 3 0 23 8
12 27 43 43 69 16 26 31 45 33 44 1 -2 -12 -33 -30 -70z"/>
<path d="M2200 2174 c0 -3 9 -17 20 -31 22 -29 25 -26 10 11 -8 23 -30 37 -30
20z"/>
<path d="M2546 2149 c-63 -33 -71 -50 -11 -25 37 16 95 56 79 56 -5 -1 -35
-15 -68 -31z"/>
<path d="M9290 2162 c0 -4 18 -26 41 -47 l41 -40 -29 47 c-25 42 -53 63 -53
40z"/>
<path d="M9698 2114 c-16 -8 -28 -19 -28 -24 0 -16 13 -12 45 15 33 27 25 32
-17 9z"/>
<path d="M3190 2100 c-6 -11 -15 -18 -20 -15 -5 3 -21 -18 -36 -47 -62 -122
-169 -306 -205 -352 -21 -26 -36 -53 -33 -58 4 -5 10 -6 14 -1 18 20 128 190
131 203 8 31 85 159 97 162 11 3 77 128 67 128 -2 0 -9 -9 -15 -20z"/>
<path d="M9922 2013 c-68 -52 -121 -97 -118 -100 3 -3 56 34 118 83 135 104
133 103 127 108 -2 2 -59 -39 -127 -91z"/>
<path d="M9146 2075 c10 -8 24 -14 29 -14 6 0 1 6 -9 14 -11 8 -24 15 -30 15
-5 0 -1 -7 10 -15z"/>
<path d="M8948 2073 c-21 -2 -38 -8 -38 -13 0 -12 27 -20 48 -14 9 3 -25 -17
-77 -45 -208 -113 -258 -167 -248 -267 9 -94 93 -226 167 -264 63 -32 113 -26
248 30 139 58 177 62 215 24 30 -29 45 -89 30 -113 -11 -18 -160 -101 -182
-101 -15 0 -75 57 -83 80 -5 13 -10 12 -39 -4 -19 -10 -60 -32 -91 -48 l-58
-29 15 -28 c21 -41 85 -123 113 -146 14 -11 44 -26 66 -33 l41 -12 -55 4 -55
4 35 -15 c32 -14 40 -14 85 3 74 26 212 92 275 132 41 26 50 29 35 12 -11 -12
-41 -33 -67 -46 -27 -13 -48 -26 -48 -28 0 -15 71 21 155 77 91 61 96 66 72
72 -26 7 -26 8 -11 38 52 100 -56 331 -181 388 -64 29 -105 24 -235 -31 -139
-59 -187 -64 -219 -24 -49 63 -39 85 66 143 96 53 127 56 164 12 l27 -32 86
46 c47 26 90 44 96 40 13 -8 13 -4 -5 39 -17 41 -30 50 -14 10 17 -47 3 -36
-35 26 -20 33 -53 72 -73 87 -32 25 -46 28 -112 29 -42 1 -93 0 -113 -3z"/>
<path d="M9190 2068 c1 -15 60 -87 60 -73 0 9 -50 85 -56 85 -2 0 -4 -6 -4
-12z"/>
<path d="M8789 1995 c-38 -19 -77 -49 -93 -70 -16 -20 -26 -38 -25 -39 2 -2
49 30 104 70 54 41 95 74 90 74 -6 -1 -40 -16 -76 -35z"/>
<path d="M4017 1990 c10 -11 373 -179 373 -174 0 2 -24 16 -52 30 -29 15 -69
39 -88 54 -19 15 -60 35 -90 45 -30 9 -64 23 -75 30 -23 14 -81 26 -68 15z"/>
<path d="M3794 1969 c-19 -22 -19 -22 1 -11 11 6 27 16 35 22 13 8 13 10 -1
10 -9 0 -24 -10 -35 -21z"/>
<path d="M9458 1959 c26 -30 29 -47 5 -28 -10 8 40 -51 111 -131 109 -123 194
-235 210 -275 2 -7 7 -7 14 0 12 11 -99 163 -182 250 -52 55 -81 93 -81 109 0
6 -22 31 -50 56 -27 24 -40 33 -27 19z"/>
<path d="M3946 1895 c-15 -35 -24 -69 -20 -76 4 -7 3 -9 -3 -6 -13 8 -26 -20
-16 -35 4 -7 1 -8 -7 -3 -10 6 -12 4 -7 -9 4 -9 3 -15 -3 -11 -5 3 -8 -3 -8
-12 0 -17 -193 -487 -233 -565 l-19 -38 98 -49 c243 -122 378 -164 450 -140
82 27 169 152 268 380 54 127 74 197 74 268 l0 65 -54 52 c-43 42 -91 71 -238
143 -100 50 -192 93 -203 95 -16 5 -26 -5 -49 -49 -16 -31 -31 -54 -33 -51 -2
2 7 27 21 55 15 28 23 51 18 51 -4 0 -20 -29 -36 -65z m249 -215 c62 -30 89
-49 100 -70 17 -34 19 -89 4 -143 -13 -49 -88 -211 -94 -205 -3 3 2 22 10 43
9 20 14 39 12 42 -3 2 -13 -17 -23 -42 -11 -30 -36 -63 -68 -92 l-51 -46 50
27 50 28 -37 -36 c-49 -47 -83 -47 -184 -1 -43 20 -80 37 -82 39 -1 2 31 73
72 157 63 130 106 229 139 322 4 9 9 17 11 17 3 0 44 -18 91 -40z"/>
<path d="M4097 1628 c-42 -73 -99 -190 -94 -195 3 -2 32 50 66 116 61 120 76
160 28 79z"/>
<path d="M4205 1654 c6 -5 27 -24 47 -43 32 -29 36 -31 31 -12 -3 13 -23 31
-47 43 -22 11 -36 16 -31 12z"/>
<path d="M3936 1222 c-6 -10 91 -58 99 -50 5 5 -76 58 -89 58 -3 0 -7 -4 -10
-8z"/>
<path d="M3380 1931 c0 -9 44 -41 56 -41 4 0 -3 11 -16 25 -24 26 -40 32 -40
16z"/>
<path d="M3732 1875 c-7 -15 -11 -30 -8 -32 7 -7 28 36 24 49 -2 6 -9 -2 -16
-17z"/>
<path d="M9205 1834 c-78 -47 -87 -56 -39 -43 57 16 136 58 129 69 -10 16 -27
11 -90 -26z"/>
<path d="M8623 1838 c-6 -7 -13 -29 -17 -48 -6 -34 -6 -34 14 9 21 44 22 62 3
39z"/>
<path d="M3686 1827 c3 -10 9 -15 12 -12 3 3 0 11 -7 18 -10 9 -11 8 -5 -6z"/>
<path d="M8933 1800 c-40 -23 -73 -47 -73 -56 0 -12 4 -13 23 -3 38 21 147 91
147 95 0 12 -32 0 -97 -36z"/>
<path d="M9242 1780 c2 -8 26 -20 53 -27 83 -21 69 -10 -44 35 -9 3 -12 0 -9
-8z"/>
<path d="M3851 1759 c-5 -13 -21 -51 -36 -84 l-26 -60 35 40 c22 26 36 54 39
80 7 47 1 57 -12 24z"/>
<path d="M4500 1740 c37 -31 50 -36 50 -20 0 11 -58 50 -75 50 -5 0 6 -13 25
-30z"/>
<path d="M9090 1740 c-36 -10 -85 -27 -110 -39 -25 -11 -55 -21 -67 -21 -13 0
-23 -5 -23 -11 0 -24 165 25 259 76 34 18 21 17 -59 -5z"/>
<path d="M3275 1736 c65 -45 248 -156 252 -153 5 6 -245 167 -259 167 -7 0 -4
-6 7 -14z"/>
<path d="M8425 1728 c3 -9 -26 -22 -86 -41 -58 -18 -89 -33 -86 -40 2 -7 21
-66 42 -132 20 -66 59 -176 86 -243 45 -113 71 -212 56 -212 -4 0 -25 61 -48
135 -24 74 -44 133 -46 131 -6 -6 71 -281 79 -284 15 -7 8 -22 -9 -22 -24 0
-169 -53 -157 -57 9 -3 76 18 139 43 17 7 18 6 7 -8 -16 -19 -124 -58 -162
-58 -16 0 -37 11 -52 28 -32 33 -113 234 -162 402 -20 69 -39 133 -42 142 -4
15 -14 13 -91 -13 -98 -33 -96 -32 -88 -19 11 18 -9 11 -40 -14 -27 -22 -28
-25 -12 -31 12 -5 23 -1 32 11 7 11 15 17 18 14 3 -3 44 -119 91 -259 91 -268
121 -337 164 -386 15 -16 18 -23 7 -14 -47 38 -46 28 3 -22 42 -43 54 -51 62
-39 5 8 7 17 5 20 -2 3 27 5 63 6 50 1 100 12 194 43 70 23 130 46 134 52 3 5
15 7 27 4 12 -2 16 -2 9 1 -8 4 0 18 27 44 65 63 64 137 -4 341 -19 57 -32
112 -29 124 4 14 3 16 -4 6 -7 -9 -14 0 -26 35 -9 26 -14 49 -12 51 2 3 9 -12
16 -32 7 -20 14 -35 16 -32 2 2 -9 41 -25 88 -15 46 -34 109 -41 139 -13 56
-38 110 -52 110 -4 0 -5 -6 -3 -12z"/>
<path d="M8602 1715 c35 -130 42 -145 81 -176 l41 -33 -33 48 c-18 26 -44 75
-58 109 -25 63 -40 88 -31 52z"/>
<path d="M9390 1713 c0 -5 14 -24 31 -43 l31 -35 -23 43 c-20 37 -39 55 -39
35z"/>
<path d="M9995 1624 c-110 -92 -131 -114 -46 -48 68 52 149 123 141 123 -3 0
-45 -34 -95 -75z"/>
<path d="M4541 1680 c0 -8 9 -35 19 -60 l19 -45 0 36 c1 23 -7 46 -19 60 -13
17 -19 19 -19 9z"/>
<path d="M4736 1655 c4 -8 7 -15 8 -15 26 -7 206 -36 206 -33 0 6 -52 24 -110
38 -109 26 -110 26 -104 10z"/>
<path d="M4725 1475 c-21 -74 -40 -133 -42 -131 -2 1 6 42 17 91 12 48 20 89
17 91 -16 17 -209 -549 -221 -651 l-6 -50 25 65 c24 64 25 64 19 20 -4 -25
-12 -62 -19 -83 -14 -42 -15 -41 44 -57 53 -14 50 -22 -4 -10 -22 5 -51 9 -65
9 -38 0 80 -46 151 -59 62 -11 101 -4 60 12 -13 4 -21 14 -18 21 18 47 257
810 255 812 -4 3 -162 55 -169 55 -3 0 -23 -61 -44 -135z"/>
<path d="M4885 1592 c83 -31 98 -35 91 -23 -7 10 -49 24 -111 36 -16 3 -7 -3
20 -13z"/>
<path d="M9488 1570 c-2 -8 7 -41 20 -74 18 -44 23 -72 20 -107 -3 -26 -1 -54
3 -61 5 -7 9 28 9 82 0 82 -3 100 -24 134 -14 23 -25 34 -28 26z"/>
<path d="M2910 1557 c0 -3 33 -25 73 -49 91 -57 97 -60 97 -55 0 2 -28 21 -62
42 -35 21 -73 45 -85 53 -13 8 -23 12 -23 9z"/>
<path d="M5200 1525 c-23 -19 -52 -38 -64 -41 -31 -9 -68 -60 -77 -107 -10
-55 -3 -60 11 -8 6 22 21 53 35 69 34 41 135 92 197 99 48 6 50 8 23 14 -62
14 -83 9 -125 -26z"/>
<path d="M7905 1525 l-30 -14 30 6 c17 3 37 9 45 14 27 15 -11 10 -45 -6z"/>
<path d="M9156 1531 c-18 -7 -18 -8 -2 -14 10 -4 33 -7 52 -7 28 0 36 -6 51
-32 14 -27 18 -30 21 -14 7 31 -31 71 -69 73 -19 1 -43 -1 -53 -6z"/>
<path d="M4517 1463 c-35 -87 -28 -93 8 -8 16 36 26 67 23 70 -2 3 -17 -25
-31 -62z"/>
<path d="M5310 1519 c-25 -5 -15 -7 38 -8 39 0 72 1 72 3 0 8 -75 11 -110 5z"/>
<path d="M9854 1508 l-19 -23 23 19 c21 18 27 26 19 26 -2 0 -12 -10 -23 -22z"/>
<path d="M4906 1398 c-50 -163 -168 -550 -174 -573 -13 -53 13 6 67 146 76
199 148 425 157 489 12 87 -13 57 -50 -62z"/>
<path d="M5184 1476 c-50 -30 -52 -34 -97 -148 -26 -65 -47 -126 -46 -135 0
-10 9 7 20 37 10 30 36 90 56 132 34 69 43 79 86 100 26 12 47 26 47 30 0 17
-18 12 -66 -16z"/>
<path d="M3685 1348 c-68 -140 -97 -189 -60 -101 23 55 13 49 -23 -13 -33 -58
-34 -74 -3 -74 17 0 28 20 147 288 13 28 21 52 18 52 -3 0 -39 -69 -79 -152z"/>
<path d="M5437 1489 c8 -8 22 -8 50 -1 l38 10 -49 1 c-37 1 -47 -2 -39 -10z"/>
<path d="M5224 1455 c-27 -14 -59 -40 -72 -59 -61 -89 -113 -288 -131 -501
l-10 -110 3 125 c1 69 -1 114 -5 100 -4 -14 -8 -70 -9 -125 l-3 -100 -7 83
c-11 128 -24 111 -17 -23 9 -164 16 -207 39 -236 l19 -24 -16 33 c-9 18 -15
50 -13 70 l3 37 19 -55 c19 -57 36 -85 36 -60 0 8 -9 39 -20 68 -11 29 -20 62
-19 75 1 16 4 12 11 -13 26 -94 116 -148 297 -180 241 -42 312 -16 360 135 33
104 34 112 8 118 -12 2 -48 12 -80 20 -32 9 -64 14 -71 11 -7 -3 -20 -23 -29
-45 -22 -57 -49 -64 -161 -42 -113 21 -146 47 -146 115 0 67 38 276 59 323 24
53 44 69 31 23 -15 -49 -4 -45 15 7 22 57 43 63 144 41 94 -20 126 -47 126
-106 0 -33 4 -42 20 -45 42 -10 159 -24 164 -20 10 11 20 123 15 165 -16 117
-76 158 -288 199 -145 28 -209 27 -272 -4z"/>
<path d="M5550 1471 c-20 -6 -11 -9 44 -19 44 -7 87 -22 122 -44 45 -27 56
-40 69 -78 l14 -45 -5 40 c-9 70 -13 75 -97 116 -81 39 -100 43 -147 30z"/>
<path d="M8771 1449 c8 -11 39 -29 69 -39 l54 -18 56 29 c30 17 46 27 35 24
-93 -29 -99 -29 -158 -2 -67 32 -73 33 -56 6z"/>
<path d="M3090 1446 c0 -3 9 -10 20 -16 11 -6 20 -8 20 -6 0 3 -9 10 -20 16
-11 6 -20 8 -20 6z"/>
<path d="M6960 1423 l0 -30 -80 -5 c-45 -3 -86 -10 -91 -15 -8 -8 -3 -90 16
-285 27 -274 68 -604 76 -612 2 -3 58 2 123 10 66 8 124 13 130 10 6 -2 0 -5
-14 -6 -14 -1 -47 -7 -75 -14 -44 -11 -30 -12 115 -8 91 3 171 9 178 14 22 18
13 28 -20 21 -23 -4 -30 -2 -23 5 6 5 19 12 30 14 22 4 23 21 10 126 l-6 52
-52 0 c-29 0 -92 -7 -142 -15 -49 -8 -90 -13 -91 -12 -1 1 -7 49 -13 107 -7
58 -14 123 -17 145 -3 30 -2 35 5 20 15 -31 13 -11 -19 254 -27 225 -40 299
-40 224z m317 -939 c-3 -3 -12 -4 -19 -1 -8 3 -5 6 6 6 11 1 17 -2 13 -5z"/>
<path d="M7816 1366 c14 -42 28 -75 30 -73 5 5 -36 130 -47 141 -5 6 3 -25 17
-68z"/>
<path d="M9174 1386 c-50 -23 -50 -23 -87 -4 -42 21 -48 12 -14 -20 31 -30 51
-28 132 12 52 26 64 35 45 35 -14 1 -48 -10 -76 -23z"/>
<path d="M6741 1375 c-1 -11 8 -71 19 -134 11 -62 20 -125 20 -139 0 -14 3
-22 6 -19 11 10 -17 260 -32 287 -12 22 -13 23 -13 5z"/>
<path d="M8898 1361 c-52 -24 -62 -37 -13 -17 22 10 44 21 50 27 12 12 7 11
-37 -10z"/>
<path d="M6166 1335 c-18 -14 -9 -15 102 -15 75 0 122 4 122 10 0 6 -24 10
-52 10 -29 0 -75 3 -103 5 -36 4 -55 1 -69 -10z"/>
<path d="M7806 1325 c9 -41 64 -207 75 -225 17 -30 8 9 -26 116 -35 108 -63
171 -49 109z"/>
<path d="M4456 1323 c-6 -14 -5 -15 5 -6 7 7 10 15 7 18 -3 3 -9 -2 -12 -12z"/>
<path d="M6416 1293 c17 -77 47 -183 50 -180 5 5 -25 188 -33 200 -11 18 -23
4 -17 -20z"/>
<path d="M6151 1274 c-22 -84 -191 -764 -191 -769 0 -3 35 -5 77 -3 l77 3 13
55 c31 123 34 130 50 130 13 0 14 -3 5 -12 -30 -30 -10 -35 46 -12 46 18 66
22 90 14 20 -5 34 -5 38 1 11 18 22 -1 29 -48 3 -27 11 -69 17 -96 l10 -47 78
0 77 0 -13 58 c-17 73 -17 77 2 61 13 -11 14 -9 9 12 -3 13 -9 44 -14 69 l-9
45 -2 -45 c-1 -25 -3 -40 -6 -35 -2 6 -33 151 -68 323 -35 172 -66 316 -69
318 -3 3 -57 8 -120 11 l-115 6 -11 -39z m145 -235 c3 -33 11 -74 19 -92 7
-17 16 -53 20 -79 l7 -48 -69 0 c-38 0 -72 2 -75 5 -3 3 1 34 10 67 12 49 17
58 24 42 6 -14 7 -12 3 8 -3 15 5 67 17 114 24 97 33 93 44 -17z"/>
<path d="M6216 879 c-9 -49 -9 -49 42 -47 l47 1 -43 4 -43 4 7 35 c3 19 4 34
1 34 -2 0 -7 -14 -11 -31z"/>
<path d="M6310 855 c0 -8 4 -15 10 -15 5 0 7 7 4 15 -4 8 -8 15 -10 15 -2 0
-4 -7 -4 -15z"/>
<path d="M6113 1248 c-6 -24 -35 -137 -66 -253 -57 -216 -81 -324 -52 -235 9
25 42 146 76 270 33 124 62 233 65 243 3 9 1 17 -4 17 -5 0 -13 -19 -19 -42z"/>
<path d="M8071 1275 c0 -5 26 -75 57 -154 43 -108 62 -146 78 -152 20 -7 18
-2 -12 48 -18 30 -46 87 -63 127 -49 119 -59 141 -60 131z"/>
<path d="M8835 1260 c7 -24 64 -110 73 -110 5 0 -57 112 -70 125 -7 7 -8 2 -3
-15z"/>
<path d="M5464 1225 c27 -14 62 -35 78 -46 23 -17 28 -18 28 -5 0 22 -70 66
-116 72 l-39 5 49 -26z"/>
<path d="M5801 1158 c-8 -49 -19 -88 -25 -88 -6 0 -27 4 -46 9 -19 5 -57 12
-85 15 -49 5 -49 5 -20 -9 17 -8 44 -14 62 -15 17 0 53 -9 79 -20 26 -11 49
-19 51 -17 2 3 2 51 1 108 l-3 104 -14 -87z"/>
<path d="M6066 1168 c-23 -82 -47 -190 -43 -194 2 -3 19 50 36 117 18 66 30
123 28 126 -3 2 -12 -20 -21 -49z"/>
<path d="M4386 1136 c-14 -30 -26 -61 -25 -68 0 -7 14 16 30 51 16 35 28 66
25 68 -2 2 -16 -20 -30 -51z"/>
<path d="M8630 1164 c1 -27 47 -156 53 -147 4 7 -4 42 -18 79 -25 67 -35 86
-35 68z"/>
<path d="M3645 1095 c104 -44 131 -44 36 0 -40 19 -83 35 -95 35 -11 -1 15
-16 59 -35z"/>
<path d="M5268 1119 c-12 -31 -30 -165 -26 -199 2 -24 9 -1 22 76 17 103 19
162 4 123z"/>
<path d="M4321 1004 c-21 -31 -29 -50 -23 -56 10 -10 30 20 52 77 13 35 8 32
-29 -21z"/>
<path d="M3810 1015 c14 -8 30 -14 35 -14 6 0 -1 6 -15 14 -14 8 -29 14 -35
14 -5 0 1 -6 15 -14z"/>
<path d="M6471 1018 c0 -7 9 -35 20 -63 l19 -50 -5 40 c-3 22 -5 50 -5 63 0
13 -6 22 -15 22 -8 0 -15 -6 -14 -12z"/>
<path d="M8671 958 c-1 -15 4 -30 9 -33 12 -7 12 12 0 40 -8 18 -9 17 -9 -7z"/>
<path d="M3925 954 c63 -17 81 -17 35 1 -19 7 -46 13 -60 13 -15 0 -5 -5 25
-14z"/>
<path d="M4215 925 c-34 -29 -37 -35 -22 -41 15 -5 15 -9 5 -22 -7 -9 8 -1 35
18 26 18 47 38 47 43 0 5 -14 -3 -31 -18 -41 -34 -48 -25 -14 19 34 44 31 44
-20 1z"/>
<path d="M8620 910 c0 -5 7 -10 15 -10 8 0 15 5 15 10 0 6 -7 10 -15 10 -8 0
-15 -4 -15 -10z"/>
<path d="M7066 861 c3 -30 7 -68 10 -85 l4 -31 -14 35 -14 35 -1 -30 c0 -16 2
-47 5 -67 6 -34 8 -36 30 -26 27 13 27 16 -7 148 -18 72 -18 73 -13 21z"/>
<path d="M5575 863 c15 -15 104 -35 126 -28 32 10 21 25 -18 25 -21 0 -56 3
-78 6 -27 5 -37 3 -30 -3z"/>
<path d="M6792 850 c0 -14 2 -19 5 -12 2 6 2 18 0 25 -3 6 -5 1 -5 -13z"/>
<path d="M8565 850 c-27 -10 -46 -19 -42 -19 16 -2 102 22 112 30 15 14 -15 9
-70 -11z"/>
<path d="M5484 823 c-14 -22 -167 -28 -206 -8 -16 7 -28 10 -28 7 1 -23 25
-31 122 -37 l108 -7 10 27 c12 32 9 41 -6 18z"/>
<path d="M5727 763 c-8 -26 -18 -60 -21 -75 -3 -14 -9 -33 -12 -42 -4 -11 -1
-16 10 -16 9 0 16 1 16 3 0 1 7 40 15 86 8 47 13 86 11 88 -2 3 -11 -17 -19
-44z"/>
<path d="M6793 653 c7 -110 12 -127 27 -103 7 11 10 1 10 -32 0 -29 5 -48 11
-48 7 0 9 12 6 33 -3 17 -9 73 -12 122 -6 89 -19 135 -38 135 -6 0 -8 -39 -4
-107z"/>
<path d="M7195 725 c-28 -13 -25 -13 45 -8 41 3 79 9 85 14 15 15 -97 9 -130
-6z"/>
<path d="M5977 693 c-3 -10 -11 -43 -18 -73 -7 -30 -19 -70 -26 -89 -10 -23
-11 -37 -4 -44 11 -11 11 -12 41 128 10 49 17 91 15 93 -2 2 -5 -5 -8 -15z"/>
<path d="M7346 663 c4 -26 10 -59 15 -73 l7 -25 1 26 c2 46 -11 119 -21 119
-5 0 -6 -20 -2 -47z"/>
<path d="M6367 545 c3 -44 11 -83 17 -87 16 -11 206 -10 206 1 0 5 6 11 13 13
9 2 7 14 -11 43 -13 22 -21 32 -18 22 3 -11 9 -30 12 -43 l6 -24 -90 0 c-62 0
-93 4 -99 13 -4 6 -16 41 -25 77 l-17 65 6 -80z"/>
<path d="M5100 594 c1 -20 18 -32 82 -58 62 -24 78 -26 185 -24 108 3 113 4
58 11 -121 15 -220 39 -307 72 -10 4 -18 3 -18 -1z"/>
<path d="M5655 575 c-16 -14 -26 -25 -22 -25 14 0 67 34 67 42 0 14 -14 8 -45
-17z"/>
<path d="M6146 565 c-3 -9 -6 -27 -6 -40 0 -29 -8 -35 -68 -45 l-47 -8 62 -1
61 -1 4 53 c5 58 4 66 -6 42z"/>
<path d="M5550 520 c-13 -9 -13 -10 0 -10 8 0 22 5 30 10 13 9 13 10 0 10 -8
0 -22 -5 -30 -10z"/>
<path d="M7370 500 c0 -5 5 -10 11 -10 5 0 7 5 4 10 -3 6 -8 10 -11 10 -2 0
-4 -4 -4 -10z"/>
<path d="M6855 440 c-7 -12 29 -12 65 0 21 7 19 8 -17 9 -23 1 -45 -3 -48 -9z"/>
<path d="M11277 3603 c18 -2 50 -2 70 0 21 2 7 4 -32 4 -38 0 -55 -2 -38 -4z"/>
</g>
</svg>
